<?xml version="1.0" standalone="no"?>
<!DOCTYPE svg PUBLIC "-//W3C//DTD SVG 20010904//EN"
 "http://www.w3.org/TR/2001/REC-SVG-20010904/DTD/svg10.dtd">
<svg version="1.0" xmlns="http://www.w3.org/2000/svg"
 width="600.000000pt" height="692.000000pt" viewBox="0 0 600.000000 692.000000"
 preserveAspectRatio="xMidYMid meet">

<g transform="translate(0.000000,692.000000) scale(0.100000,-0.100000)"
fill="#000000" stroke="none">
<path d="M546 6218 c-3 -46 -8 -773 -11 -1616 -6 -1700 -9 -1609 60 -1878 116
-451 369 -882 716 -1220 401 -389 903 -659 1562 -838 l127 -35 128 35 c658
179 1160 449 1561 838 347 338 600 769 716 1220 69 269 66 178 60 1878 -3 843
-8 1570 -11 1616 l-6 82 -2448 0 -2448 0 -6 -82z m871 -273 c19 -8 44 -15 54
-15 25 0 51 -64 47 -112 -2 -21 0 -38 4 -38 5 0 8 -44 8 -97 0 -119 16 -154
86 -184 50 -22 90 -21 224 7 86 18 258 33 310 27 19 -2 76 -11 127 -20 121
-22 181 -10 248 49 54 48 75 84 75 133 0 148 -213 215 -392 124 -47 -24 -68
-24 -68 0 0 26 79 77 158 101 166 51 326 -1 396 -130 34 -63 36 -162 5 -227
-43 -88 -177 -193 -248 -193 -27 0 -29 -6 -16 -58 8 -28 12 -113 12 -213 -1
-161 0 -168 26 -217 31 -59 33 -87 11 -157 -8 -27 -15 -88 -16 -135 0 -109 -3
-119 -43 -136 -24 -10 -35 -22 -40 -44 -7 -32 -14 -35 -93 -43 -34 -4 -44 -2
-52 14 -13 23 -1 49 33 76 43 34 67 78 82 153 25 117 12 157 -80 255 -32 33
-81 92 -110 130 -28 39 -63 79 -76 90 -18 15 -20 16 -10 3 12 -17 10 -18 -38
-18 -56 0 -134 -27 -250 -85 -40 -21 -110 -50 -154 -66 -75 -27 -82 -28 -99
-12 -17 15 -18 15 -18 -7 0 -13 -9 -65 -21 -115 -19 -85 -34 -122 -80 -205
-12 -23 -19 -54 -19 -92 0 -56 -16 -88 -43 -88 -7 0 -21 -13 -32 -29 -22 -34
-40 -41 -107 -41 -46 0 -48 1 -48 27 0 17 12 40 33 63 42 44 97 175 97 232 0
24 7 62 15 84 13 38 12 46 -6 95 -11 29 -19 68 -17 86 2 18 2 30 -1 28 -2 -3
-15 4 -27 16 -20 19 -32 21 -96 18 -59 -3 -77 -8 -96 -27 -12 -12 -29 -22 -37
-22 -8 0 -15 -8 -15 -17 0 -24 28 -76 46 -86 8 -4 23 -25 33 -46 11 -21 31
-45 45 -55 22 -14 26 -24 26 -67 0 -98 -44 -122 -81 -44 -12 25 -42 67 -66 92
-30 31 -50 62 -60 97 -8 28 -23 65 -33 81 -17 28 -24 63 -21 108 1 9 37 53 81
96 44 43 80 85 80 94 0 19 59 70 74 64 7 -3 10 11 8 44 -3 38 5 70 38 155 27
69 40 117 38 136 -4 23 0 32 16 38 16 7 10 9 -25 9 -25 1 -54 -5 -65 -14 -27
-20 -68 -18 -89 5 -25 27 -13 50 28 50 18 0 42 6 53 14 18 14 18 16 2 32 -19
20 -50 12 -42 -11 4 -9 1 -15 -9 -15 -8 0 -28 -7 -43 -15 -34 -17 -68 -19 -95
-5 -36 20 -19 30 49 30 65 1 66 1 40 16 -31 16 -44 50 -33 86 7 23 7 23 -9 3
-15 -19 -15 -19 -16 11 0 37 23 51 96 57 40 3 61 11 90 35 27 22 50 32 74 33
19 0 53 4 75 8 22 5 44 9 48 10 4 0 24 -6 44 -14z m2525 -7 c45 -12 49 -16 64
-61 9 -26 13 -59 10 -72 -3 -13 -1 -27 4 -30 6 -4 9 -44 8 -98 -3 -80 0 -96
19 -128 43 -69 99 -77 294 -43 165 30 303 33 427 9 113 -21 164 -15 227 27 85
57 123 144 90 208 -59 114 -241 145 -390 66 -63 -33 -91 -2 -37 40 87 68 265
102 364 69 151 -49 233 -200 184 -337 -14 -39 -65 -108 -106 -145 -34 -31
-125 -73 -156 -73 -21 0 -25 -3 -19 -17 5 -10 11 -113 14 -230 6 -200 8 -214
29 -243 32 -42 37 -86 16 -140 -11 -29 -18 -81 -20 -148 -2 -82 -6 -107 -20
-123 -9 -10 -23 -19 -30 -19 -8 0 -22 -17 -31 -37 -17 -36 -21 -38 -73 -44
-30 -3 -61 -4 -67 -1 -27 9 -13 52 32 94 52 51 74 105 82 203 7 86 -6 115 -83
195 -29 30 -80 91 -112 135 -61 83 -98 123 -86 91 5 -13 -1 -16 -38 -16 -54 0
-122 -23 -244 -81 -114 -55 -221 -97 -251 -99 -1 0 -9 12 -17 27 -14 27 -14
27 -13 -17 1 -41 -15 -117 -44 -210 -6 -19 -23 -53 -37 -75 -18 -28 -27 -60
-32 -112 -7 -69 -21 -103 -42 -103 -5 0 -24 -16 -43 -36 -32 -33 -36 -35 -92
-32 -51 3 -58 6 -61 25 -2 14 10 37 36 65 21 24 44 59 51 78 7 19 20 48 29 64
8 16 19 59 23 95 5 36 11 83 15 104 4 21 2 43 -4 50 -6 7 -16 35 -22 61 -8 37
-8 52 2 64 11 13 11 14 0 8 -9 -5 -22 0 -37 14 -21 20 -32 22 -94 18 -55 -3
-75 -8 -94 -26 -13 -12 -29 -22 -35 -22 -27 0 -11 -56 29 -105 22 -27 45 -58
51 -69 6 -11 22 -29 35 -39 17 -14 23 -28 23 -57 0 -86 -49 -119 -79 -55 -8
17 -38 58 -67 93 -32 38 -58 80 -65 105 -6 23 -22 62 -36 86 -41 71 -30 109
55 190 38 36 80 85 92 108 13 24 35 47 52 54 25 10 28 15 23 43 -6 32 13 100
60 215 17 40 24 72 21 87 -5 19 -2 26 16 34 19 7 15 9 -22 9 -25 1 -58 -6 -74
-14 -42 -22 -73 -19 -92 10 -21 32 -11 45 35 45 20 0 46 7 57 15 19 15 19 15
0 30 -27 21 -46 19 -46 -5 0 -25 -9 -25 -49 -2 -34 18 -46 47 -38 88 4 24 4
24 -14 8 -18 -16 -19 -16 -19 9 0 33 34 57 82 57 45 0 86 15 115 42 16 14 48
25 100 34 82 12 90 12 165 -8z m-382 -244 c11 -4 9 -9 -10 -19 -46 -26 -110
-14 -110 20 0 10 89 9 120 -1z m-1510 -655 c-20 -17 -21 -19 -5 -14 48 18 76
17 90 -1 29 -39 85 -178 85 -211 0 -6 -18 -32 -39 -57 -30 -34 -41 -58 -46
-93 -12 -91 -38 -156 -69 -173 -16 -8 -33 -23 -38 -33 -4 -9 -12 -25 -17 -34
-6 -14 -23 -19 -69 -21 -53 -3 -61 -1 -67 17 -10 32 15 71 80 123 66 53 67 56
85 175 l12 82 -32 44 c-21 30 -36 68 -46 118 -15 69 -15 74 2 86 10 7 36 13
58 13 l41 0 -25 -21z m2520 16 c0 -3 -12 -10 -26 -16 -15 -5 -25 -12 -22 -15
3 -2 17 0 32 6 47 18 65 12 91 -29 30 -48 65 -150 65 -190 0 -21 -8 -35 -30
-51 -27 -20 -47 -65 -55 -125 -10 -86 -37 -145 -66 -145 -15 0 -25 -11 -36
-40 -18 -45 -35 -53 -104 -48 -41 3 -44 5 -47 35 -3 34 22 66 102 128 36 28
40 37 57 120 20 101 19 111 -26 176 -40 59 -57 166 -28 187 16 12 93 18 93 7z
m342 -1883 l476 -393 -24 -89 c-75 -281 -248 -623 -436 -862 l-44 -57 -953
776 c-660 537 -956 772 -964 765 -7 -5 -428 -352 -936 -772 l-924 -763 -29 34
c-116 138 -306 481 -383 692 -45 124 -87 279 -77 288 4 4 539 448 1190 988
l1182 980 723 -596 c397 -328 936 -774 1199 -991z m-1852 -414 c24 -13 58 -40
74 -61 28 -35 31 -46 31 -105 0 -37 -3 -78 -7 -92 -7 -22 0 -32 58 -80 37 -30
70 -64 75 -75 5 -11 20 -38 33 -60 24 -42 32 -71 91 -345 23 -101 48 -188 65
-223 16 -33 24 -57 17 -54 -72 27 -75 16 -4 -17 29 -14 71 -41 94 -61 34 -29
44 -45 52 -88 17 -79 17 -143 1 -161 -46 -57 -213 -111 -415 -135 l-139 -16
-7 -34 c-9 -46 -21 -54 -75 -54 -48 0 -80 23 -70 50 11 28 -23 40 -136 47
-209 13 -355 49 -419 104 -31 25 -31 27 -26 91 13 135 44 185 152 241 40 21
50 29 30 25 -16 -3 -42 -12 -57 -20 -32 -15 -34 -9 -13 41 8 19 44 155 81 302
83 333 91 350 216 455 l57 47 -16 37 c-10 26 -13 52 -8 87 8 63 27 99 69 131
65 49 129 57 196 23z"/>
<path d="M1238 5879 c12 -7 22 -16 22 -20 0 -5 7 -6 16 -2 19 7 6 16 -36 27
-25 6 -25 6 -2 -5z"/>
<path d="M1336 5862 c-4 -7 -2 -29 5 -49 6 -19 9 -59 6 -87 l-5 -51 14 45 c8
25 13 54 10 65 -3 11 -9 36 -13 55 -6 23 -11 31 -17 22z"/>
<path d="M1207 5853 c-10 -16 11 -39 23 -27 8 8 7 14 -4 23 -8 7 -17 8 -19 4z"/>
<path d="M1494 5726 c-4 -16 -22 -34 -51 -51 -50 -27 -79 -32 -86 -12 -3 7 -6
7 -6 1 -1 -6 7 -18 17 -27 16 -14 21 -13 72 19 36 23 57 44 62 61 4 15 5 29 3
31 -2 2 -7 -7 -11 -22z"/>
<path d="M1174 5162 c4 -37 23 -79 32 -70 1 2 -6 28 -17 58 l-20 55 5 -43z"/>
<path d="M3741 5869 c15 -15 24 -18 32 -10 7 7 2 13 -17 21 -38 14 -39 13 -15
-11z"/>
<path d="M3835 5835 c4 -22 7 -67 7 -100 0 -48 1 -54 8 -30 13 50 11 101 -6
136 l-15 34 6 -40z"/>
<path d="M3700 5846 c0 -19 19 -31 31 -19 5 5 0 14 -11 21 -17 10 -20 10 -20
-2z"/>
<path d="M3989 5730 c-5 -28 -73 -79 -106 -80 -24 0 -31 -14 -12 -25 5 -4 18
0 27 8 9 8 31 22 49 31 36 18 56 48 50 74 -2 12 -5 10 -8 -8z"/>
<path d="M3660 5193 c0 -25 23 -83 37 -94 15 -13 15 -11 0 18 -10 18 -17 43
-17 58 0 14 -4 25 -10 25 -5 0 -10 -3 -10 -7z"/>
<path d="M2607 4344 c-4 -4 -7 -16 -7 -26 0 -10 -7 -18 -17 -18 -10 0 -25 -13
-34 -29 -14 -24 -21 -27 -48 -23 -55 8 -118 -66 -100 -117 12 -30 -5 -51 -40
-51 -42 0 -84 -50 -91 -108 -4 -42 -8 -47 -32 -50 -17 -2 -39 -17 -58 -40 -38
-47 -41 -95 -6 -127 23 -21 24 -28 19 -97 -7 -90 12 -138 53 -138 24 0 25 -3
23 -49 -3 -55 23 -110 59 -126 28 -12 28 -23 -3 -76 -19 -34 -23 -53 -19 -81
6 -35 5 -37 -23 -36 -77 2 -127 -69 -89 -127 34 -51 88 -57 137 -15 19 18 24
31 24 73 0 52 0 52 33 55 30 3 36 10 58 55 13 29 24 61 24 73 0 22 -28 54 -48
54 -20 0 -24 21 -11 71 12 45 11 53 -9 94 -18 38 -26 45 -51 45 l-29 0 5 60
c6 65 -9 103 -47 115 -28 9 -25 34 7 68 23 23 28 36 26 75 -2 49 7 62 43 62
31 0 78 72 71 108 -8 38 6 56 42 58 28 1 76 41 83 69 1 6 5 -171 8 -392 l5
-401 57 46 c54 44 56 47 33 50 -17 2 -25 10 -25 23 0 17 7 19 60 19 53 0 60
-2 60 -19 0 -12 -8 -21 -21 -23 -19 -3 -18 -6 16 -45 20 -24 42 -43 50 -43 14
0 75 65 75 80 0 6 -9 10 -20 10 -13 0 -20 7 -20 20 0 18 7 20 60 20 53 0 60
-2 60 -20 0 -13 -7 -20 -20 -20 -29 0 -25 -11 21 -55 l40 -40 42 45 c39 42 41
45 20 48 -15 2 -23 10 -23 23 0 17 7 19 60 19 57 0 60 -1 60 -25 0 -18 -5 -25
-20 -25 -29 0 -25 -11 19 -54 l39 -38 40 44 c40 42 40 43 16 46 -18 3 -24 9
-24 28 0 23 3 24 65 24 63 0 65 -1 65 -25 0 -19 -5 -25 -22 -25 -23 -1 -23 -1
3 -23 14 -12 39 -32 55 -45 l29 -23 5 408 c4 359 7 405 19 381 18 -35 57 -61
80 -53 26 8 40 -15 38 -63 -1 -33 4 -47 27 -71 15 -16 40 -32 54 -36 35 -9 41
-20 35 -64 -4 -29 1 -43 27 -76 l31 -39 -38 -32 c-33 -28 -37 -37 -37 -75 0
-24 4 -54 8 -66 7 -19 4 -22 -26 -25 -29 -3 -36 -9 -57 -53 -20 -42 -22 -54
-12 -80 17 -48 14 -63 -18 -80 -39 -20 -45 -44 -25 -96 26 -66 41 -84 72 -84
26 0 27 -2 28 -49 1 -44 5 -53 34 -78 38 -32 75 -36 108 -12 71 49 28 154 -63
154 -23 0 -25 4 -25 40 0 24 -10 58 -26 86 l-26 47 31 24 c43 34 62 75 59 125
-3 36 0 43 16 43 45 0 75 102 52 176 -6 22 -2 33 23 62 17 19 31 42 31 51 0
44 -58 112 -100 118 -20 2 -25 9 -27 33 0 17 -2 35 -2 42 -1 7 -15 29 -33 48
-24 28 -37 35 -53 31 -32 -8 -48 15 -40 57 6 31 2 40 -31 77 -34 37 -42 41
-71 37 -28 -5 -36 -2 -49 19 -11 16 -26 24 -45 24 -24 0 -29 4 -29 25 0 24 -2
25 -75 25 -73 0 -75 -1 -75 -25 l0 -25 -224 0 -225 0 -3 23 c-3 20 -9 22 -73
25 -39 1 -74 0 -78 -4z m123 -34 c0 -5 -23 -10 -51 -10 -31 0 -48 4 -44 10 3
6 26 10 51 10 24 0 44 -4 44 -10z m605 0 c4 -6 -13 -10 -44 -10 -28 0 -51 5
-51 10 0 6 20 10 44 10 25 0 48 -4 51 -10z m185 -115 c19 -21 22 -30 14 -43
-17 -26 -41 -26 -59 2 -13 19 -14 29 -5 45 14 27 21 26 50 -4z m-1012 3 c18
-18 15 -42 -7 -62 -16 -15 -22 -15 -40 -4 -26 16 -26 19 0 52 23 29 30 31 47
14z m242 -38 l0 -50 -60 0 -60 0 0 50 0 50 60 0 60 0 0 -50z m200 0 l0 -50
-60 0 -60 0 0 50 0 50 60 0 60 0 0 -50z m200 0 l0 -50 -60 0 -60 0 0 50 0 50
60 0 60 0 0 -50z m200 0 l0 -50 -65 0 -65 0 0 50 0 50 65 0 65 0 0 -50z m-966
-142 c23 -37 -36 -77 -64 -44 -10 13 -9 20 4 42 19 28 43 29 60 2z m1274 10
c18 -18 14 -46 -9 -58 -27 -15 -49 3 -49 41 0 24 4 29 23 29 13 0 28 -5 35
-12z m-908 -48 l0 -50 -60 0 -60 0 0 50 0 50 60 0 60 0 0 -50z m200 0 l0 -50
-60 0 -60 0 0 50 0 50 60 0 60 0 0 -50z m200 0 l0 -50 -60 0 -60 0 0 50 0 50
60 0 60 0 0 -50z m200 0 l0 -50 -65 0 -65 0 0 50 0 50 65 0 65 0 0 -50z m414
-115 c32 -49 -4 -86 -46 -48 -22 20 -23 31 -1 55 21 24 28 23 47 -7z m-1496 3
c18 -18 15 -43 -8 -63 -38 -35 -75 6 -43 49 20 28 33 32 51 14z m482 -68 l0
-50 -60 0 -60 0 0 50 0 50 60 0 60 0 0 -50z m200 0 l0 -50 -60 0 -60 0 0 50 0
50 60 0 60 0 0 -50z m200 0 l0 -50 -60 0 -60 0 0 50 0 50 60 0 60 0 0 -50z
m200 0 l0 -50 -65 0 -65 0 0 43 c0 24 3 47 7 50 3 4 33 7 65 7 l58 0 0 -50z
m-600 -180 l0 -50 -60 0 -60 0 0 50 0 50 60 0 60 0 0 -50z m200 0 l0 -50 -60
0 -60 0 0 50 0 50 60 0 60 0 0 -50z m200 0 l0 -50 -60 0 -60 0 0 50 0 50 60 0
60 0 0 -50z m200 0 l0 -50 -65 0 -65 0 0 43 c0 24 3 47 7 50 3 4 33 7 65 7
l58 0 0 -50z m399 36 c9 -10 7 -19 -7 -36 -22 -27 -42 -20 -42 14 0 37 27 49
49 22z m-1466 -16 c3 -10 -1 -27 -8 -37 -13 -17 -14 -17 -29 2 -25 32 -19 55
15 55 9 0 19 -9 22 -20z m1382 -161 c10 -15 -15 -69 -31 -69 -16 0 -18 33 -4
61 12 21 25 25 35 8z m-1305 -30 c10 -23 10 -33 1 -42 -16 -15 -41 16 -41 50
0 33 25 28 40 -8z m1254 -183 c24 -51 21 -76 -9 -76 -20 0 -26 7 -36 39 -21
71 15 100 45 37z m-1188 11 c7 -18 -24 -87 -42 -94 -30 -11 -38 13 -20 62 13
32 23 45 37 45 11 0 22 -6 25 -13z m1331 -178 c13 -13 4 -59 -13 -66 -21 -8
-61 5 -68 22 -14 39 51 74 81 44z m-1459 -11 c32 -32 -4 -74 -53 -62 -19 5
-25 13 -25 33 0 15 3 31 7 34 11 11 58 8 71 -5z"/>
<path d="M2937 2632 c-20 -22 -22 -73 -5 -90 7 -7 31 -12 55 -12 45 0 63 17
63 59 0 51 -79 81 -113 43z"/>
<path d="M3044 2430 c-92 -37 40 -177 135 -144 57 20 26 99 -53 135 -46 21
-52 21 -82 9z"/>
<path d="M3040 1720 c-80 -7 -62 -16 46 -24 52 -4 103 -15 144 -32 34 -14 71
-24 81 -22 18 3 18 5 4 25 -28 40 -149 63 -275 53z"/>
<path d="M2750 1491 c-119 -20 -143 -26 -220 -56 -65 -26 -100 -53 -100 -78 0
-21 0 -21 16 2 33 46 197 101 368 121 111 14 377 14 476 1 136 -18 235 -59
259 -106 9 -18 10 -16 8 10 -2 26 -10 34 -57 57 -93 46 -174 59 -415 63 -182
4 -240 1 -335 -14z"/>
<path d="M2987 1444 c-4 -4 -7 -36 -7 -71 0 -46 -4 -63 -13 -63 -15 0 -37 -41
-37 -70 0 -10 7 -25 15 -34 8 -8 18 -29 21 -46 8 -37 17 -44 50 -36 18 5 24
13 24 35 0 16 7 34 15 41 18 15 19 69 2 91 -7 8 -20 18 -31 22 -14 6 -16 10
-7 21 18 21 10 110 -9 114 -9 1 -19 0 -23 -4z"/>
</g>
</svg>
