<?xml version="1.0" encoding="UTF-8" standalone="no"?>
<svg
   xmlns:dc="http://purl.org/dc/elements/1.1/"
   xmlns:cc="http://creativecommons.org/ns#"
   xmlns:rdf="http://www.w3.org/1999/02/22-rdf-syntax-ns#"
   xmlns:svg="http://www.w3.org/2000/svg"
   xmlns="http://www.w3.org/2000/svg"
   viewBox="0 0 384.47198 254.23599"
   height="254.23599"
   width="384.47198"
   xml:space="preserve"
   id="svg2"
   version="1.1"><metadata
     id="metadata8"><rdf:RDF><cc:Work
         rdf:about=""><dc:format>image/svg+xml</dc:format><dc:type
           rdf:resource="http://purl.org/dc/dcmitype/StillImage" /></cc:Work></rdf:RDF></metadata><defs
     id="defs6"><clipPath
       id="clipPath18"
       clipPathUnits="userSpaceOnUse"><path
         id="path16"
         d="M 0,190.677 H 288.354 V 0 H 0 Z" /></clipPath></defs><g
     transform="matrix(1.3333333,0,0,-1.3333333,0,254.236)"
     id="g10"><g
       id="g12"><g
         clip-path="url(#clipPath18)"
         id="g14"><g
           transform="translate(35.7598,150.1343)"
           id="g20"><path
             id="path22"
             style="fill:#231f20;fill-opacity:1;fill-rule:nonzero;stroke:none"
             d="m 0,0 c 0,-0.318 -0.058,-0.548 -0.176,-0.686 -0.118,-0.136 -0.233,-0.206 -0.457,-0.206 -0.218,0 -0.341,0.073 -0.461,0.217 C -1.213,-0.531 -1.273,-0.307 -1.273,0 V 3.408 H -2.201 V 0 c 0,-0.532 0.149,-0.944 0.446,-1.235 0.297,-0.29 0.64,-0.437 1.122,-0.437 0.481,0 0.815,0.145 1.112,0.434 C 0.776,-0.947 0.925,-0.535 0.925,0 V 3.408 L 0,3.408 Z" /></g><g
           transform="translate(39.8896,150.3511)"
           id="g24"><path
             id="path26"
             style="fill:#231f20;fill-opacity:1;fill-rule:nonzero;stroke:none"
             d="M 0,0 -0.02,-0.008 -1.474,3.19 h -0.931 v -5.006 h 0.931 V 1.379 L -1.454,1.385 0,-1.816 H 0.924 V 3.19 L 0,3.19 Z" /></g><path
           id="path28"
           style="fill:#231f20;fill-opacity:1;fill-rule:nonzero;stroke:none"
           d="m 42.673,153.542 h -0.924 v -5.007 h 0.924 z" /><g
           transform="translate(45.5786,148.5347)"
           id="g30"><path
             id="path32"
             style="fill:#231f20;fill-opacity:1;fill-rule:nonzero;stroke:none"
             d="M 0,0 1.33,5.007 H 0.353 L -0.441,1.269 -0.477,1.087 h -0.02 L -0.532,1.279 -1.319,5.007 H -2.297 L -0.967,0 Z" /></g><g
           transform="translate(50.2773,149.3149)"
           id="g34"><path
             id="path36"
             style="fill:#231f20;fill-opacity:1;fill-rule:nonzero;stroke:none"
             d="m 0,0 h -1.878 v 1.417 h 1.598 v 0.781 h -1.598 v 1.247 h 1.872 V 4.228 H -2.809 V -0.78 l 2.809,0 z" /></g><g
           transform="translate(52.5425,151.3071)"
           id="g38"><path
             id="path40"
             style="fill:#231f20;fill-opacity:1;fill-rule:nonzero;stroke:none"
             d="M 0,0 H -0.621 V 1.45 H 0.002 C 0.19,1.45 0.333,1.384 0.431,1.249 0.529,1.113 0.579,0.931 0.579,0.7 0.579,0.476 0.529,0.304 0.431,0.182 0.333,0.06 0.189,0 0,0 m 0.469,-0.988 c 0.096,-0.137 0.145,-0.331 0.145,-0.58 v -0.341 c 0,-0.172 0.01,-0.341 0.029,-0.507 0.02,-0.164 0.067,-0.282 0.145,-0.356 h 0.96 v 0.071 c -0.077,0.071 -0.13,0.185 -0.161,0.343 -0.03,0.157 -0.045,0.304 -0.045,0.441 v 0.355 c 0,0.303 -0.054,0.556 -0.162,0.757 C 1.272,-0.604 1.096,-0.459 0.853,-0.372 1.066,-0.261 1.228,-0.109 1.34,0.08 1.451,0.27 1.506,0.494 1.506,0.757 1.506,1.22 1.373,1.58 1.105,1.842 0.839,2.103 0.471,2.231 0.002,2.231 h -1.55 v -5.003 h 0.927 v 1.991 h 0.673 c 0.18,0 0.32,-0.069 0.417,-0.207" /></g><g
           transform="translate(56.5757,151.4585)"
           id="g42"><path
             id="path44"
             style="fill:#231f20;fill-opacity:1;fill-rule:nonzero;stroke:none"
             d="m 0,0 c -0.286,0.131 -0.486,0.248 -0.601,0.355 -0.116,0.107 -0.174,0.243 -0.174,0.408 0,0.178 0.052,0.327 0.155,0.445 0.104,0.118 0.248,0.177 0.434,0.177 0.198,0 0.351,-0.071 0.46,-0.213 C 0.382,1.03 0.437,0.844 0.437,0.615 H 1.339 L 1.346,0.636 C 1.354,1.074 1.217,1.437 0.934,1.724 0.651,2.012 0.284,2.156 -0.17,2.156 -0.617,2.156 -0.984,2.027 -1.271,1.77 -1.559,1.511 -1.702,1.177 -1.702,0.766 c 0,-0.415 0.123,-0.738 0.37,-0.967 0.248,-0.232 0.618,-0.437 1.113,-0.619 0.242,-0.11 0.41,-0.222 0.506,-0.334 0.095,-0.115 0.144,-0.268 0.144,-0.463 0,-0.189 -0.047,-0.337 -0.142,-0.446 -0.095,-0.112 -0.24,-0.166 -0.436,-0.166 -0.251,0 -0.438,0.068 -0.562,0.203 -0.124,0.135 -0.186,0.358 -0.186,0.666 H -1.8 l -0.007,-0.019 c -0.011,-0.521 0.149,-0.921 0.481,-1.199 0.333,-0.279 0.725,-0.418 1.179,-0.418 0.455,0 0.82,0.123 1.094,0.368 0.275,0.245 0.412,0.584 0.412,1.018 0,0.42 -0.114,0.753 -0.341,0.999 C 0.79,-0.364 0.451,-0.161 0,0" /></g><path
           id="path46"
           style="fill:#231f20;fill-opacity:1;fill-rule:nonzero;stroke:none"
           d="m 58.732,148.535 h 0.924 v 5.007 h -0.924 z" /><g
           transform="translate(60.2358,152.7603)"
           id="g48"><path
             id="path50"
             style="fill:#231f20;fill-opacity:1;fill-rule:nonzero;stroke:none"
             d="M 0,0 H 1.065 V -4.226 H 1.994 V 0 H 3.065 V 0.782 H 0 Z" /></g><g
           transform="translate(66.3232,154.7935)"
           id="g52"><path
             id="path54"
             style="fill:#231f20;fill-opacity:1;fill-rule:nonzero;stroke:none"
             d="m 0,0 -0.009,0.021 h -0.978 l -0.574,-0.913 0.748,-0.001 z" /></g><g
           transform="translate(64.8462,149.3149)"
           id="g56"><path
             id="path58"
             style="fill:#231f20;fill-opacity:1;fill-rule:nonzero;stroke:none"
             d="M 0,0 V 1.417 H 1.598 V 2.198 H 0 V 3.445 H 1.873 V 4.228 H -0.93 V -0.78 H 1.879 V 0 Z" /></g><g
           transform="translate(35.7515,144.6147)"
           id="g60"><path
             id="path62"
             style="fill:#231f20;fill-opacity:1;fill-rule:nonzero;stroke:none"
             d="m 0,0 c 0,-0.393 -0.07,-0.706 -0.211,-0.944 -0.14,-0.239 -0.34,-0.357 -0.6,-0.357 h -0.453 v 3.447 h 0.453 c 0.26,0 0.46,-0.119 0.6,-0.355 C -0.07,1.555 0,1.241 0,0.851 Z m -0.758,2.927 h -1.438 v -5.009 h 1.438 c 0.488,0 0.891,0.194 1.208,0.582 0.319,0.388 0.478,0.888 0.478,1.499 v 0.843 c 0,0.612 -0.159,1.112 -0.478,1.501 -0.317,0.389 -0.72,0.584 -1.208,0.584" /></g><g
           transform="translate(38.415,144.731)"
           id="g64"><path
             id="path66"
             style="fill:#231f20;fill-opacity:1;fill-rule:nonzero;stroke:none"
             d="M 0,0 H 1.598 V 0.78 H 0 v 1.25 h 1.872 v 0.781 h -2.803 v -5.009 h 2.81 v 0.781 l -1.879,0 z" /></g><g
           transform="translate(43.4551,147.5415)"
           id="g68"><path
             id="path70"
             style="fill:#231f20;fill-opacity:1;fill-rule:nonzero;stroke:none"
             d="m 0,0 h -0.931 v -5.009 h 2.552 v 0.78 H 0 Z" /></g><g
           transform="translate(46.436,145.395)"
           id="g72"><path
             id="path74"
             style="fill:#231f20;fill-opacity:1;fill-rule:nonzero;stroke:none"
             d="M 0,0 H -0.019 L -0.804,2.146 H -1.82 l 1.337,-3.164 v -1.844 h 0.928 v 1.782 l 1.359,3.226 h -1.01 z" /></g><g
           transform="translate(50.8857,144.3315)"
           id="g76"><path
             id="path78"
             style="fill:#231f20;fill-opacity:1;fill-rule:nonzero;stroke:none"
             d="M 0,0 C 0,-0.363 -0.063,-0.636 -0.19,-0.817 -0.316,-0.998 -0.5,-1.09 -0.739,-1.09 c -0.242,0 -0.425,0.092 -0.549,0.273 -0.124,0.181 -0.187,0.454 -0.187,0.817 v 1.415 c 0,0.36 0.061,0.631 0.183,0.814 0.123,0.18 0.306,0.272 0.55,0.272 0.242,0 0.426,-0.092 0.552,-0.273 C -0.063,2.044 0,1.772 0,1.415 Z M -0.742,3.281 C -1.244,3.281 -1.644,3.115 -1.944,2.78 -2.245,2.447 -2.396,1.988 -2.396,1.403 V 0 c 0,-0.586 0.151,-1.046 0.452,-1.374 0.3,-0.331 0.702,-0.496 1.205,-0.496 0.503,0 0.906,0.165 1.209,0.496 0.303,0.328 0.454,0.788 0.454,1.374 v 1.403 c 0,0.585 -0.152,1.044 -0.457,1.377 -0.305,0.335 -0.709,0.501 -1.209,0.501" /></g><g
           transform="translate(55.022,144.3501)"
           id="g80"><path
             id="path82"
             style="fill:#231f20;fill-opacity:1;fill-rule:nonzero;stroke:none"
             d="m 0,0 -0.02,-0.007 -1.455,3.198 h -0.931 v -5.008 h 0.931 V 1.379 L -1.455,1.385 0,-1.817 H 0.924 V 3.191 H 0 Z" /></g><g
           transform="translate(64.166,108.0044)"
           id="g84"><path
             id="path86"
             style="fill:#231f20;fill-opacity:1;fill-rule:nonzero;stroke:none"
             d="m 0,0 c -0.004,-4.658 -0.007,-10.694 -0.007,-10.748 0,-7.717 -6.279,-13.996 -14.006,-13.998 -0.026,0 -0.053,0.002 -0.079,0.002 h -0.003 -0.002 c -0.027,0 -0.053,-0.002 -0.08,-0.002 -7.726,0.002 -14.006,6.281 -14.006,13.998 0,0.055 -0.004,6.094 -0.007,10.748 h -2.58 c 0.005,-4.65 0.008,-10.685 0.008,-10.75 0,-9.139 7.437,-16.574 16.579,-16.574 0.03,0 0.059,0.002 0.088,0.002 0.03,0 0.058,-0.002 0.089,-0.002 9.141,0 16.578,7.435 16.578,16.574 0,0.064 0.003,6.095 0.007,10.75 z" /></g><g
           transform="translate(58.9946,108.0044)"
           id="g88"><path
             id="path90"
             style="fill:#231f20;fill-opacity:1;fill-rule:nonzero;stroke:none"
             d="m 0,0 c -0.004,-4.683 -0.007,-10.724 -0.007,-10.74 0,-4.87 -3.961,-8.829 -8.829,-8.831 -0.029,0 -0.057,0.003 -0.085,0.003 v 0.002 h -0.003 -0.002 v -0.002 c -0.028,0 -0.056,-0.003 -0.085,-0.003 -4.868,0.002 -8.829,3.961 -8.829,8.831 0,0.017 -0.003,6.059 -0.007,10.74 h -2.597 l 0.006,-8.023 c 10e-4,-1.611 0.002,-2.699 0.002,-2.717 0,-6.301 5.128,-11.428 11.431,-11.428 0.027,0 0.054,0.002 0.081,0.002 0.028,0 0.054,-0.002 0.083,-0.002 6.302,0 11.43,5.127 11.43,11.428 0,0.018 10e-4,1.106 0.002,2.717 L 2.596,0 Z" /></g><g
           transform="translate(53.791,108.0044)"
           id="g92"><path
             id="path94"
             style="fill:#231f20;fill-opacity:1;fill-rule:nonzero;stroke:none"
             d="m 0,0 c -0.004,-4.762 -0.007,-10.64 -0.007,-10.657 0,-2.042 -1.654,-3.706 -3.694,-3.721 H -3.72 -3.739 c -2.039,0.015 -3.694,1.679 -3.694,3.721 0,0.017 -0.004,5.892 -0.006,10.657 h -2.603 c 0.003,-4.765 0.007,-10.64 0.007,-10.657 0,-3.483 2.831,-6.318 6.312,-6.324 h 0.003 0.003 c 3.481,0.006 6.312,2.841 6.312,6.324 0,0.017 0.004,5.895 0.008,10.657 z" /></g><path
           id="path96"
           style="fill:#231f20;fill-opacity:1;fill-rule:nonzero;stroke:none"
           d="m 33.463,113.137 h 33.286 v -2.566 H 33.463 Z" /><path
           id="path98"
           style="fill:#231f20;fill-opacity:1;fill-rule:nonzero;stroke:none"
           d="m 33.463,118.268 h 33.286 v -2.565 H 33.463 Z" /><g
           transform="translate(61.0244,125.4907)"
           id="g100"><path
             id="path102"
             style="fill:#231f20;fill-opacity:1;fill-rule:nonzero;stroke:none"
             d="m 0,0 c 0,0 1.072,-0.407 1.329,-0.769 0.167,-0.234 1.139,-0.51 1.139,-0.51 0,0 0.296,-0.021 0.683,-0.375 0.295,-0.271 0.389,-0.382 0.575,-0.434 h -9.848 c 0.03,0.16 0.039,0.427 -0.2,0.563 -0.156,0.088 -0.292,0.26 -0.469,0.344 -0.679,0.325 -0.753,0.205 -1.036,0.434 -0.161,0.118 -0.267,0.639 -0.267,0.639 0,0 1.242,1.225 1.48,1.535 0.299,0.385 0.416,0.541 0.551,0.73 0.934,0.088 1.914,0.256 2.251,0.448 0.096,0.058 0.183,0.11 0.265,0.158 C -3.44,2.703 -3.346,2.647 -3.265,2.598 -2.766,2.303 -1.511,1.773 -1.068,1.422 -0.624,1.064 0,0 0,0 m -26.355,0.998 c 0.338,0.14 1.084,-0.146 1.828,-0.01 1.137,0.206 2.761,0.775 3.308,1.02 0.497,0.217 1.384,1.069 1.659,1.296 0.27,0.228 0.555,0.294 0.555,0.294 0,0 0.329,-0.354 0.992,-0.942 0.664,-0.589 0.889,-0.861 1.121,-1.052 0.226,-0.193 0.504,-0.582 0.55,-0.737 0.183,-0.588 0.118,-1.561 0.118,-1.561 0,0 1.036,-0.368 1.368,-0.663 0.234,-0.209 0.43,-0.548 0.526,-0.731 h -10.603 c 0.027,0.176 0.039,0.567 -0.343,0.702 -0.279,0.116 -0.223,0.22 -0.811,0.422 -0.237,0.085 -0.37,0.184 -0.492,0.492 -0.117,0.31 -0.119,0.824 -0.119,0.824 0,0 0.053,0.528 0.343,0.646 m 15.527,2.222 c 0.233,-0.108 0.815,-0.359 1.446,-0.599 0.062,-0.162 0.108,-0.4 0.088,-0.732 -0.057,-0.826 -0.876,-1.854 -0.876,-1.854 0,0 0.414,-1.024 0.533,-1.173 0.116,-0.146 0.495,-0.453 0.624,-0.699 0.036,-0.073 0.082,-0.173 0.118,-0.251 h -2.252 c 0.037,0.308 -0.165,0.436 -0.219,0.489 -0.123,0.121 -0.23,0.362 -0.531,0.467 -1.052,0.375 -1.035,0.224 -1.338,0.466 -0.208,0.166 -0.73,0.512 -0.848,0.725 -0.118,0.212 -0.331,1.18 -0.334,2.006 0.002,0.498 -0.035,0.973 -0.069,1.27 0.969,0.167 2.498,0.407 3.658,-0.115 m 17.337,8.483 c 0,0 -0.053,0.097 -0.161,0.214 C 6.242,12.038 5.973,12.2 5.844,12.326 5.716,12.458 5.562,12.663 5.486,12.716 5.414,12.771 5.26,13.014 5.189,13.07 5.11,13.123 5.024,13.521 5.014,13.564 5.005,13.606 4.974,13.729 4.855,13.791 4.789,13.82 4.604,13.941 4.484,14.037 4.369,14.135 4.07,14.424 4.07,14.424 c 0,0 -0.078,0.484 -0.195,0.741 -0.116,0.26 -0.163,0.356 -0.218,0.453 -0.052,0.099 -0.086,0.118 -0.114,0.27 0,0 -0.163,0.011 -0.314,-0.085 0,0 -0.311,0.236 -0.621,0.419 -0.312,0.182 -0.68,0.375 -0.832,0.405 -0.147,0.034 -0.348,0.15 -0.426,0.227 0,0 -0.22,0.009 -0.399,-0.02 -0.129,-0.018 -0.553,-0.062 -0.779,-0.095 -0.225,-0.029 -0.778,-0.123 -0.906,-0.131 -0.267,-0.019 -0.323,-0.04 -0.725,-0.116 0,0 -0.319,-0.055 -0.427,-0.097 -0.11,-0.043 -0.453,-0.176 -0.692,-0.208 -0.261,-0.031 -0.534,-0.033 -0.849,-0.083 -0.141,-0.024 -0.675,-0.238 -0.926,-0.296 -0.113,-0.028 -0.264,-0.046 -0.264,-0.046 0,0 0.05,-0.177 0.189,-0.212 0,0 -0.074,-0.157 -0.246,-0.241 -0.173,-0.091 -0.353,-0.164 -0.589,-0.251 -0.239,-0.082 -0.614,-0.233 -0.711,-0.31 0,0 0.075,-0.148 0.222,-0.229 0,0 0.036,-0.022 -0.167,-0.123 -0.206,-0.111 -0.671,-0.303 -0.883,-0.401 -0.219,-0.099 -0.512,-0.271 -0.657,-0.344 -0.205,-0.105 -0.226,-0.112 -0.422,-0.233 -0.192,-0.117 -0.093,-0.11 -0.093,-0.11 0,0 0.096,-0.022 0.232,-0.034 0.14,-0.009 0.216,-0.064 0.216,-0.064 0,0 0.015,-0.073 -0.084,-0.162 -0.096,-0.084 -0.237,-0.277 -0.569,-0.504 -0.165,-0.113 -0.308,-0.241 -0.489,-0.367 -0.183,-0.128 -0.367,-0.344 -0.433,-0.389 l 0.196,-0.171 -0.03,-0.135 c -0.085,-0.051 -0.19,-0.11 -0.323,-0.163 -0.152,-0.066 -1.443,-0.24 -2.937,-0.223 -2.494,0.035 -3.181,0.356 -4.451,0.414 -1.273,0.06 -2.217,-0.223 -3.379,-0.576 -0.227,-0.07 -0.407,-0.139 -0.543,-0.207 -0.488,-0.103 -0.981,-0.238 -1.432,-0.413 -1.616,-0.62 -4.437,-2.955 -5.226,-3.286 -0.779,-0.33 -1.217,-0.345 -1.771,-0.276 -0.552,0.068 -0.769,0.209 -0.769,0.209 0,0 -0.283,0.598 -0.607,0.842 -0.423,0.311 -1.463,0.679 -1.463,0.679 0,0 -0.182,-0.682 0.188,-1.341 0.443,-0.787 1.311,-0.738 1.624,-0.867 0.554,-0.22 1.874,-0.489 2.986,-0.042 0.999,0.401 2.011,1.066 2.733,1.471 0.718,0.402 1.869,0.753 2.84,0.861 -0.046,-0.168 -0.095,-0.334 -0.147,-0.478 -0.271,-0.826 -1.273,-2.577 -1.477,-2.868 -0.237,-0.343 -1.175,-1.478 -1.34,-1.617 -0.162,-0.14 -0.559,-0.297 -1.057,-0.39 -0.548,-0.102 -2.119,-0.259 -2.119,-0.259 0,0 -0.278,-1.406 -0.625,-2.262 -0.143,-0.349 -0.478,-1.043 -0.478,-1.043 0,0 0.589,-0.549 0.776,-1.238 0.093,-0.176 0.247,-0.466 0.369,-0.555 v -2.439 h 0.002 v -0.07 H 5.725 V -2.09 H 5.724 c 0.062,0.194 0.151,0.636 -0.232,0.819 -0.497,0.237 -0.097,0.425 -1.25,0.864 C 3.912,-0.282 3.361,-0.105 3.174,0.049 2.988,0.199 1.991,1.594 1.495,2.182 0.996,2.775 -0.022,4.126 -0.022,4.126 l -0.225,0.533 0.041,0.403 c 0.063,0.066 0.131,0.13 0.19,0.207 0.181,0.193 0.455,0.481 0.533,0.641 0.19,0.383 0.123,0.009 0.24,0.218 0.088,0.158 0.43,0.347 0.572,0.436 0.14,0.086 0.348,0.344 0.348,0.344 0,0 0.006,-0.153 0.064,-0.303 0,0 0.1,0.082 0.258,0.276 0.159,0.194 0.105,0.212 0.299,0.408 0.194,0.192 0.331,0.577 0.455,0.826 0.124,0.245 0.198,0.319 0.231,0.371 0,0 0.082,-0.197 0.136,-0.336 0,0 0.127,0.123 0.18,0.246 C 3.353,8.519 3.389,8.679 3.477,8.817 3.564,8.96 3.632,9.144 3.716,9.179 3.806,9.217 3.974,9.32 4.152,9.328 4.283,9.336 4.463,9.261 4.625,9.227 4.78,9.189 4.853,9.261 4.959,9.121 5.064,8.98 5.207,8.907 5.207,8.907 c 0,0 0.002,0.022 0.131,0.087 0.13,0.065 0.139,0.063 0.259,0.15 0.119,0.086 0.1,0.129 0.19,0.216 0.1,0.084 0.154,0.182 0.194,0.345 0.045,0.158 -0.028,0.254 0.05,0.329 0.076,0.073 0.231,0.077 0.309,0.264 0.074,0.181 0.052,0.214 0.085,0.245 0.031,0.032 0.051,0.161 0.051,0.161 0,0 0.218,0.183 0.25,0.332 0.029,0.151 0.062,0.205 0.129,0.271 0,0 -0.056,0.217 -0.346,0.396" /></g><path
           id="path104"
           style="fill:#171716;fill-opacity:1;fill-rule:nonzero;stroke:none"
           d="m 89.799,80.68 h -1.134 v 73.678 h 1.134 z" /><g
           transform="translate(109.4722,140.2046)"
           id="g106"><path
             id="path108"
             style="fill:#231f20;fill-opacity:1;fill-rule:nonzero;stroke:none"
             d="M 0,0 V -6.546 H 16.619 33.107 44.359 V 0 Z M 33.107,-12.692 H 28.003 16.619 11.517 0 v -6.413 h 16.619 16.488 11.319 v 6.413 z m 0,-12.824 H 28.003 16.619 11.517 0 v -6.545 h 16.619 16.488 11.252 v 6.545 z" /></g><g
           transform="translate(159.8506,140.2046)"
           id="g110"><path
             id="path112"
             style="fill:#231f20;fill-opacity:1;fill-rule:nonzero;stroke:none"
             d="m 0,0 h 10.729 5.891 11.384 5.102 C 40.608,0 44.36,-2.183 44.36,-6.545 H 33.106 16.62 0 Z m 0,-12.692 h 11.515 v -6.412 H 0 Z m 11.515,-12.824 v -6.545 L 0,-32.127 v 6.611 z m 21.591,12.824 h 11.319 v -6.412 H 33.106 Z m 0,-12.824 h 11.253 v -6.545 H 33.106 Z" /></g><g
           transform="translate(237.4741,114.689)"
           id="g114"><path
             id="path116"
             style="fill:#231f20;fill-opacity:1;fill-rule:nonzero;stroke:none"
             d="m 0,0 h 5.888 11.385 c 0,-4.364 -3.796,-6.544 -11.385,-6.544 H -27.087 V 0 Z m -15.703,25.516 h 5.105 27.871 V 18.97 h -27.871 -16.489 c 0,4.363 3.796,6.546 11.384,6.546 M 17.273,6.41 h -44.36 v 6.412 h 44.36 z" /></g><g
           transform="translate(176.2407,100.2124)"
           id="g118"><path
             id="path120"
             style="fill:#231f20;fill-opacity:1;fill-rule:nonzero;stroke:none"
             d="M 0,0 H 4.964 V -1.117 H 1.27 v -2.59 H 4.634 V -4.824 H 1.27 v -2.92 H 4.964 V -8.861 H 0 Z" /></g><g
           transform="translate(183.2261,100.2124)"
           id="g122"><path
             id="path124"
             style="fill:#231f20;fill-opacity:1;fill-rule:nonzero;stroke:none"
             d="m 0,0 h 1.727 l 3.91,-7.135 H 5.662 V 0 h 1.27 V -8.861 H 5.307 L 1.295,-1.574 H 1.27 V -8.861 H 0 Z" /></g><g
           transform="translate(196.4326,98.8794)"
           id="g126"><path
             id="path128"
             style="fill:#231f20;fill-opacity:1;fill-rule:nonzero;stroke:none"
             d="m 0,0 c -0.647,0.254 -1.003,0.368 -1.663,0.368 -0.711,0 -1.549,-0.254 -1.549,-1.18 0,-1.702 3.809,-1.308 3.809,-4.228 0,-1.892 -1.46,-2.641 -3.238,-2.641 -0.622,0 -1.231,0.178 -1.815,0.369 l 0.127,1.18 c 0.432,-0.178 1.193,-0.431 1.841,-0.431 0.723,0 1.739,0.406 1.739,1.447 0,1.98 -3.809,1.434 -3.809,4.189 0,1.574 1.245,2.412 2.844,2.412 0.584,0 1.282,-0.101 1.892,-0.317 z" /></g><g
           transform="translate(203.4829,92.4683)"
           id="g130"><path
             id="path132"
             style="fill:#231f20;fill-opacity:1;fill-rule:nonzero;stroke:none"
             d="m 0,0 h 1.333 c 2.184,0 3.39,1.054 3.39,3.339 0,2.069 -1.41,3.288 -3.238,3.288 H 0 Z m -1.27,7.744 h 2.616 c 2.628,0 4.722,-1.625 4.722,-4.354 0,-2.971 -1.802,-4.507 -4.722,-4.507 H -1.27 Z" /></g><g
           transform="translate(211.5225,100.2124)"
           id="g134"><path
             id="path136"
             style="fill:#231f20;fill-opacity:1;fill-rule:nonzero;stroke:none"
             d="M 0,0 H 4.964 V -1.117 H 1.27 v -2.59 H 4.634 V -4.824 H 1.27 v -2.92 H 4.964 V -8.861 H 0 Z" /></g><g
           transform="translate(222.0391,100.2124)"
           id="g138"><path
             id="path140"
             style="fill:#231f20;fill-opacity:1;fill-rule:nonzero;stroke:none"
             d="M 0,0 H 1.27 V -7.744 H 4.977 V -8.861 H 0 Z" /></g><g
           transform="translate(230.8774,95.0581)"
           id="g142"><path
             id="path144"
             style="fill:#231f20;fill-opacity:1;fill-rule:nonzero;stroke:none"
             d="M 0,0 -3.466,5.154 H -1.98 L 0.66,1.181 3.237,5.154 H 4.723 L 1.27,0 V -3.707 H 0 Z" /></g><g
           transform="translate(239.5137,92.3159)"
           id="g146"><path
             id="path148"
             style="fill:#231f20;fill-opacity:1;fill-rule:nonzero;stroke:none"
             d="M 0,0 C 2.044,0 2.92,1.701 2.92,3.466 2.92,5.269 1.955,6.944 0,6.932 -1.955,6.944 -2.92,5.269 -2.92,3.466 -2.92,1.701 -2.044,0 0,0 m 0,8.049 c 2.691,0 4.266,-1.955 4.266,-4.583 0,-2.692 -1.562,-4.583 -4.266,-4.583 -2.704,0 -4.266,1.891 -4.266,4.583 0,2.628 1.575,4.583 4.266,4.583" /></g><g
           transform="translate(245.5732,100.2124)"
           id="g150"><path
             id="path152"
             style="fill:#231f20;fill-opacity:1;fill-rule:nonzero;stroke:none"
             d="m 0,0 h 1.727 l 3.91,-7.135 H 5.662 V 0 h 1.27 V -8.861 H 5.307 L 1.295,-1.574 H 1.27 V -8.861 H 0 Z" /></g></g></g></g></svg>