<?xml version="1.0" standalone="no"?>
<!DOCTYPE svg PUBLIC "-//W3C//DTD SVG 20010904//EN"
 "http://www.w3.org/TR/2001/REC-SVG-20010904/DTD/svg10.dtd">
<svg version="1.0" xmlns="http://www.w3.org/2000/svg"
 width="591.000000pt" height="598.000000pt" viewBox="0 0 591.000000 598.000000"
 preserveAspectRatio="xMidYMid meet">

<g transform="translate(0.000000,598.000000) scale(0.100000,-0.100000)"
fill="#000000" stroke="none">
<path d="M2892 5785 l1 -34 27 19 c15 10 33 26 40 35 11 13 7 15 -28 15 -41 0
-41 -1 -40 -35z"/>
<path d="M3009 5781 c17 -21 31 -41 31 -44 0 -2 -16 -17 -36 -32 l-35 -27 -26
23 -25 24 7 -40 c4 -22 11 -55 17 -72 5 -18 7 -36 4 -41 -3 -5 10 -14 30 -20
34 -10 35 -9 49 25 8 19 19 32 25 28 6 -4 10 21 10 69 0 77 4 83 43 77 4 0 7
15 7 34 l0 35 -66 0 -66 0 31 -39z"/>
<path d="M2777 5777 l-39 -32 21 -27 21 -26 -25 11 c-13 7 -29 25 -35 40 -10
31 -23 31 -82 0 -33 -16 -34 -22 -8 -73 19 -38 21 -38 55 -29 19 6 40 7 45 4
15 -9 61 6 53 18 -4 6 -1 7 6 3 11 -7 84 35 97 56 5 8 -54 88 -65 88 -3 0 -23
-15 -44 -33z"/>
<path d="M3220 5777 c-37 -13 -40 -28 -19 -85 8 -20 12 -22 24 -12 12 10 15 9
15 -8 0 -23 40 -38 52 -19 14 21 -8 137 -26 136 -6 0 -27 -6 -46 -12z"/>
<path d="M3241 5593 c-19 -38 -19 -39 0 -63 24 -33 24 -35 -10 -66 -16 -14
-39 -49 -51 -77 -21 -47 -21 -52 -5 -63 12 -9 15 -20 10 -42 -5 -25 -13 -31
-42 -37 l-35 -6 6 -47 c13 -92 17 -103 34 -98 10 2 43 7 75 11 52 6 57 8 53
28 -18 87 -17 90 8 85 22 -5 26 0 35 41 6 25 13 62 15 81 2 19 7 43 11 52 5
12 -1 21 -24 32 -43 22 -51 40 -15 32 28 -6 30 -4 55 58 l27 63 -56 24 c-31
13 -60 25 -64 27 -4 2 -16 -14 -27 -35z"/>
<path d="M2344 5563 l-82 -35 25 -57 c13 -31 32 -62 41 -68 8 -7 11 -13 5 -13
-7 0 -15 5 -18 10 -5 8 -69 40 -80 40 -2 0 -39 -91 -40 -100 0 -3 -6 -15 -13
-28 -11 -18 -11 -29 0 -58 10 -29 10 -37 -1 -44 -8 -4 -20 -6 -28 -3 -8 3 -13
-2 -13 -16 0 -33 3 -36 41 -36 34 0 36 2 28 23 -13 34 -11 42 11 42 11 0 20 4
20 8 0 11 58 3 66 -9 7 -13 51 -11 60 2 3 6 2 15 -4 21 -11 11 -4 48 8 48 5 0
11 -15 15 -32 13 -65 15 -69 37 -62 18 5 20 3 16 -24 -5 -34 -2 -36 88 -48 58
-7 56 -9 70 94 6 51 6 52 -19 52 -20 0 -25 4 -20 15 3 9 8 14 11 11 2 -3 13
-1 23 5 20 10 26 49 8 49 -5 0 -8 -4 -5 -9 4 -5 -2 -7 -12 -4 -10 2 -28 24
-40 48 -20 41 -23 43 -46 32 -13 -6 -22 -15 -19 -20 2 -4 1 -7 -4 -6 -32 6
-44 -2 -41 -28 2 -23 -1 -29 -20 -31 -20 -3 -23 0 -17 17 4 13 2 21 -6 21 -25
0 11 26 60 44 28 10 51 19 51 21 0 2 -17 39 -37 83 l-38 80 -81 -35z m190
-197 c12 -19 12 -23 1 -23 -8 0 -12 4 -9 9 3 4 -3 8 -13 9 -11 0 -13 3 -5 6
10 4 9 9 -5 19 -16 12 -16 13 -1 8 9 -3 23 -16 32 -28z m-234 -60 c0 -2 -7 -6
-15 -10 -8 -3 -15 -1 -15 4 0 6 7 10 15 10 8 0 15 -2 15 -4z"/>
<path d="M2733 5585 c-27 -19 -28 -24 -8 -72 15 -35 16 -36 31 -17 13 16 15
16 10 2 -5 -18 3 -22 67 -34 30 -5 35 -9 26 -20 -6 -8 -22 -14 -34 -14 -17 0
-22 -6 -22 -25 0 -14 3 -27 7 -30 4 -2 5 -27 2 -55 l-5 -50 42 0 c38 0 41 -2
36 -22 -4 -19 2 -26 37 -43 47 -22 61 -45 29 -45 -12 0 -20 -3 -20 -7 1 -5 1
-34 0 -65 -1 -56 -2 -58 -28 -58 -22 0 -25 -2 -13 -10 12 -8 9 -10 -12 -10
-24 0 -27 4 -33 51 -7 49 -8 50 -36 44 -27 -6 -29 -4 -29 23 0 29 -1 29 -66
36 -37 4 -69 5 -72 2 -2 -3 -5 -40 -6 -82 -2 -75 -2 -77 -39 -108 -33 -28 -52
-57 -27 -41 5 3 8 0 5 -7 -2 -7 10 -29 28 -50 26 -29 38 -35 60 -31 23 5 27
10 27 39 0 20 5 34 13 34 6 0 0 12 -16 25 -15 13 -28 28 -28 32 -1 5 -4 7 -8
6 -4 -1 -8 5 -8 13 0 9 11 14 29 14 19 0 28 5 28 16 0 22 24 12 28 -12 8 -53
12 -61 33 -59 11 1 24 6 27 12 4 6 22 12 40 15 29 4 32 2 32 -23 0 -15 3 -34
6 -43 5 -14 10 -13 35 5 26 18 30 19 35 4 11 -29 41 9 36 45 -4 25 -1 30 17
30 11 0 21 4 21 9 0 5 16 12 35 15 29 6 35 11 35 31 0 14 4 25 10 25 6 0 9 39
8 100 -1 90 -3 100 -20 100 -10 0 -18 6 -18 14 0 7 -20 21 -45 30 l-45 18 0
50 c0 44 -2 50 -18 46 -12 -3 -24 2 -31 14 -10 17 -15 18 -29 6 -15 -11 -15
-11 -6 2 7 8 15 38 19 67 l7 51 -57 12 c-59 12 -74 7 -75 -27 0 -24 -19 -13
-22 12 -3 24 -4 25 -25 10z m138 -182 c13 -16 12 -17 -3 -4 -10 7 -18 15 -18
17 0 8 8 3 21 -13z m49 -7 c0 -2 -8 -10 -17 -17 -16 -13 -17 -12 -4 4 13 16
21 21 21 13z m-295 -446 c-3 -5 -11 -10 -16 -10 -6 0 -7 5 -4 10 3 6 11 10 16
10 6 0 7 -4 4 -10z m-15 -50 c0 -5 -2 -10 -4 -10 -3 0 -8 5 -11 10 -3 6 -1 10
4 10 6 0 11 -4 11 -10z"/>
<path d="M3522 5571 c-8 -24 -6 -33 14 -57 34 -42 30 -62 -10 -55 -5 1 -44
-12 -88 -30 -69 -28 -78 -34 -72 -52 14 -44 31 -77 36 -71 3 3 6 -1 5 -8 -2
-48 1 -51 51 -46 26 3 66 14 90 26 30 14 42 17 42 7 0 -7 7 -18 15 -25 25 -20
17 -29 -20 -23 -19 3 -35 3 -35 0 0 -3 -7 -32 -15 -63 -17 -65 -12 -74 40 -73
37 0 103 54 108 88 2 13 18 36 37 51 l33 27 -27 39 -26 40 30 78 c35 91 35 92
13 99 -10 2 -62 21 -115 40 l-97 36 -9 -28z m-75 -297 c-3 -3 -12 -4 -19 -1
-8 3 -5 6 6 6 11 1 17 -2 13 -5z"/>
<path d="M2997 5456 c-7 -17 22 -31 36 -17 5 5 6 14 3 20 -10 16 -33 14 -39
-3z"/>
<path d="M3340 5255 c0 -8 7 -15 15 -15 8 0 15 7 15 15 0 8 -7 15 -15 15 -8 0
-15 -7 -15 -15z"/>
<path d="M1668 5188 c-7 -13 -11 -26 -10 -30 1 -5 -2 -7 -7 -5 -4 1 -28 -22
-51 -52 l-43 -55 38 -33 c32 -27 41 -31 58 -21 18 9 25 6 52 -26 l31 -38 39
51 c39 50 57 59 84 42 11 -7 10 -11 -7 -20 -13 -7 -18 -17 -15 -30 4 -14 -5
-26 -30 -42 l-34 -23 31 -48 c17 -26 34 -48 39 -48 13 0 87 52 87 62 0 22 -32
56 -48 51 -10 -4 -7 4 9 19 20 19 24 29 17 41 -10 20 11 24 29 6 7 -7 12 -6
16 5 4 9 -4 23 -20 36 l-26 20 41 53 42 52 -48 21 c-89 40 -88 40 -107 -11
-10 -25 -21 -45 -25 -45 -5 0 -33 20 -63 45 -31 25 -58 45 -61 45 -3 0 -11
-10 -18 -22z"/>
<path d="M3822 5183 l-33 -28 46 -58 46 -58 -23 -19 c-13 -11 -47 -36 -75 -57
-59 -43 -67 -58 -24 -48 23 5 36 0 63 -23 18 -17 40 -32 49 -34 9 -2 34 20 61
53 l45 55 -33 40 -33 39 27 21 26 21 -53 62 c-29 33 -54 61 -55 61 -1 0 -16
-12 -34 -27z"/>
<path d="M4065 5175 c-22 -19 -45 -35 -51 -35 -6 0 -17 -7 -24 -15 -10 -12 -9
-18 7 -32 26 -23 86 -103 82 -108 -2 -2 -30 -15 -62 -29 l-58 -25 42 -83 c23
-46 43 -84 44 -86 2 -2 26 8 54 23 l51 25 -21 42 c-20 40 -20 43 -4 53 49 29
49 29 31 63 -22 43 -21 47 24 79 22 15 40 33 40 38 0 16 -90 125 -103 125 -7
-1 -30 -16 -52 -35z"/>
<path d="M2009 5183 c-13 -16 -12 -17 4 -4 16 13 21 21 13 21 -2 0 -10 -8 -17
-17z"/>
<path d="M3503 5184 c-3 -8 -1 -20 6 -27 8 -8 11 -8 11 0 0 6 3 18 6 27 3 9 1
16 -5 16 -7 0 -14 -7 -18 -16z"/>
<path d="M3292 5100 c-17 -74 -17 -75 39 -88 71 -17 76 -16 82 16 3 15 10 44
15 64 11 42 11 42 -74 53 l-50 6 -12 -51z"/>
<path d="M2267 5109 c-20 -3 -40 -9 -43 -12 -3 -3 0 -34 8 -69 15 -70 17 -71
103 -47 l41 10 -9 63 c-11 70 -10 69 -100 55z"/>
<path d="M3105 4988 c-19 -47 -24 -53 -47 -50 -37 4 -48 -32 -17 -56 19 -16
20 -21 9 -42 -9 -18 -10 -25 -1 -28 16 -5 14 -27 -4 -42 -11 -9 -13 -16 -5
-24 18 -18 12 -23 -52 -46 -35 -12 -67 -26 -71 -30 -5 -4 29 -21 75 -38 82
-31 210 -82 216 -87 1 -1 -9 -31 -24 -66 -14 -35 -33 -80 -41 -101 -17 -40
-13 -52 20 -70 19 -10 20 -9 10 4 -11 12 -8 19 11 37 14 13 29 20 35 16 6 -3
25 3 41 15 28 20 32 20 52 6 38 -27 50 -21 34 17 -8 17 -17 40 -20 50 -3 10
-10 16 -15 13 -9 -6 -41 22 -73 62 -22 28 -22 29 3 35 28 7 15 27 -18 27 -25
0 -25 1 -21 60 l4 60 -33 0 c-38 0 -41 9 -13 35 19 17 22 17 63 1 50 -19 57
-20 57 -5 0 5 8 29 19 52 36 82 62 160 54 167 -10 8 -206 80 -219 80 -5 0 -18
-24 -29 -52z"/>
<path d="M4256 5012 c-3 -9 -6 -39 -8 -67 l-2 -50 66 -3 66 -3 4 63 c3 35 5
63 4 64 -1 1 -29 4 -63 7 -53 6 -62 4 -67 -11z"/>
<path d="M2014 4969 c-4 -7 -3 -9 3 -6 6 4 22 -5 37 -20 14 -14 26 -21 26 -16
0 10 -24 34 -47 47 -6 3 -15 1 -19 -5z"/>
<path d="M3455 4901 c-33 -27 -60 -54 -60 -59 0 -5 22 -37 48 -71 l48 -62 40
32 c29 23 38 36 34 50 -4 10 -3 19 2 19 4 0 16 7 27 15 17 13 16 17 -25 69
-24 30 -46 55 -49 55 -3 0 -32 -22 -65 -48z"/>
<path d="M1969 4913 c-13 -16 -12 -17 4 -4 9 7 17 15 17 17 0 8 -8 3 -21 -13z"/>
<path d="M2094 4909 c-4 -7 -3 -9 3 -6 6 4 22 -4 37 -18 14 -13 26 -20 26 -15
0 5 -13 18 -29 30 -21 14 -32 17 -37 9z"/>
<path d="M3699 4897 c6 -8 7 -18 3 -22 -4 -5 -1 -5 6 -1 10 6 10 11 1 22 -6 8
-14 14 -16 14 -3 0 0 -6 6 -13z"/>
<path d="M2950 4884 c0 -8 5 -12 10 -9 23 14 7 -18 -22 -46 l-33 -31 43 33
c40 31 41 33 25 51 -20 22 -23 22 -23 2z"/>
<path d="M1950 4880 c-12 -7 -10 -9 7 -7 12 0 19 5 17 9 -6 10 -6 10 -24 -2z"/>
<path d="M2133 4853 c4 -3 -1 -16 -10 -27 -18 -21 -18 -21 4 -2 20 16 23 36 6
36 -4 0 -3 -3 0 -7z"/>
<path d="M3630 4849 c0 -5 5 -7 10 -4 6 3 10 8 10 11 0 2 -4 4 -10 4 -5 0 -10
-5 -10 -11z"/>
<path d="M2263 4779 c-27 -33 -49 -64 -51 -68 -4 -12 130 -114 137 -104 3 5
27 36 52 69 l46 59 -68 53 -69 53 -47 -62z"/>
<path d="M1516 4786 c-66 -23 -90 -28 -93 -18 -3 6 -18 12 -35 12 -26 0 -30
-3 -25 -21 3 -12 0 -22 -8 -25 -11 -5 -10 -16 6 -62 22 -64 18 -72 -46 -72
-63 0 -113 -11 -119 -25 -3 -8 0 -30 5 -50 11 -39 5 -75 -6 -37 -8 25 -13 26
-37 8 -19 -14 -23 -33 -10 -54 7 -9 15 -10 35 -3 26 10 27 9 27 -24 0 -18 7
-40 15 -49 21 -20 19 -39 -3 -32 -12 4 -27 -3 -42 -19 -22 -24 -23 -26 -7 -42
16 -16 19 -15 50 15 28 28 40 32 85 32 51 0 52 1 52 29 0 26 4 29 45 36 25 3
43 10 40 14 -2 5 -16 6 -30 3 -23 -4 -25 -1 -25 29 0 19 -3 58 -6 87 -9 69 8
67 30 -3 15 -50 20 -55 39 -49 50 15 66 24 75 40 7 13 13 14 29 6 11 -6 24 -7
29 -3 5 4 30 14 57 21 26 7 49 16 52 19 4 8 -67 228 -81 253 -8 12 -22 10 -98
-16z m-166 -363 c0 -12 -3 -14 -8 -6 -4 6 -21 13 -37 16 -27 4 -27 4 8 6 29 1
37 -3 37 -16z"/>
<path d="M3660 4810 c0 -5 5 -10 11 -10 5 0 7 5 4 10 -3 6 -8 10 -11 10 -2 0
-4 -4 -4 -10z"/>
<path d="M2574 4777 c-21 -19 -48 -37 -59 -41 -20 -7 -20 -8 -1 -21 10 -8 23
-16 28 -17 5 -2 2 -20 -7 -40 -22 -53 -19 -62 12 -39 24 19 28 20 43 6 16 -15
18 -13 24 20 5 22 17 43 36 57 17 12 30 24 30 27 -1 3 -16 23 -34 43 l-33 38
-39 -33z"/>
<path d="M4300 4765 c-47 -24 -90 -44 -96 -44 -6 -1 -15 9 -21 21 -9 20 -10
18 -17 -20 -3 -24 -4 -47 -1 -53 4 -5 35 -9 70 -9 90 0 95 -3 95 -61 0 -47 1
-48 34 -55 19 -3 39 -3 44 0 5 3 12 35 15 72 5 54 11 69 32 86 30 24 32 35 5
43 -14 4 -20 15 -20 36 0 25 -4 29 -27 28 -16 0 -66 -20 -113 -44z m147 -57
c-3 -7 -5 -2 -5 12 0 14 2 19 5 13 2 -7 2 -19 0 -25z"/>
<path d="M3780 4793 c7 -3 8 -9 1 -17 -8 -9 -7 -13 3 -13 17 0 14 30 -3 33 -7
2 -7 0 -1 -3z"/>
<path d="M3649 4763 c-13 -16 -12 -17 4 -4 9 7 17 15 17 17 0 8 -8 3 -21 -13z"/>
<path d="M2917 4753 c-14 -16 -14 -20 -1 -38 14 -19 14 -19 34 1 20 20 20 21
2 37 -18 16 -20 16 -35 0z"/>
<path d="M2107 4713 l-15 -38 36 -16 c42 -19 45 -17 60 29 11 31 10 33 -25 47
-19 8 -37 15 -38 15 -2 0 -10 -17 -18 -37z"/>
<path d="M4010 4704 c-24 -37 -21 -37 -106 -17 -18 4 -22 -2 -31 -47 -6 -28
-7 -52 -4 -54 3 -2 27 -7 54 -11 43 -7 47 -6 47 13 0 25 16 37 33 24 7 -5 22
-11 33 -14 19 -5 23 0 28 31 3 20 6 53 6 74 0 50 -30 51 -60 1z"/>
<path d="M2707 4723 c-12 -11 -8 -22 12 -33 11 -5 22 -6 25 -1 7 11 -28 43
-37 34z"/>
<path d="M2727 4656 c-14 -13 -28 -21 -31 -18 -3 3 -6 1 -6 -4 0 -6 5 -15 12
-22 9 -9 7 -12 -9 -12 -16 0 -25 -12 -39 -50 -16 -44 -21 -50 -45 -48 -15 1
-34 -4 -43 -11 -14 -12 -20 -10 -43 15 l-26 28 -10 -22 c-6 -13 -16 -21 -23
-18 -20 8 -42 -27 -41 -65 1 -27 5 -35 16 -32 9 2 37 -17 66 -46 l49 -51 -31
-32 c-45 -48 -40 -87 20 -144 26 -24 45 -42 43 -38 -3 3 4 22 15 41 l20 35
-31 47 c-29 45 -30 46 -11 62 18 15 19 18 4 38 -8 12 -12 25 -9 28 3 4 -3 16
-14 28 l-20 21 31 23 31 23 72 -22 c103 -32 106 -31 123 15 7 22 19 45 27 50
7 6 14 13 14 18 1 4 2 8 3 10 8 27 3 37 -25 48 -42 17 -42 16 -17 36 27 22 21
42 -18 71 l-29 21 -25 -23z m-111 -201 c-3 -9 -11 -13 -16 -10 -8 5 -7 11 1
21 14 18 24 11 15 -11z"/>
<path d="M3573 4665 c-29 -13 -31 -17 -23 -48 11 -51 18 -59 40 -47 10 5 30
10 44 10 14 0 27 3 27 8 7 37 4 52 -7 52 -8 0 -19 9 -26 20 -15 23 -13 23 -55
5z"/>
<path d="M1754 4649 l-32 -9 10 -47 c6 -27 11 -49 13 -51 1 -1 24 3 52 9 l50
12 -10 48 c-10 53 -19 57 -83 38z"/>
<path d="M1931 4633 c-21 -17 -22 -21 -10 -41 16 -26 20 -26 41 -9 14 10 15
17 5 41 l-12 28 -24 -19z"/>
<path d="M2054 4622 c-6 -4 -9 -21 -7 -38 5 -29 7 -31 31 -24 26 7 30 19 17
58 -5 13 -24 16 -41 4z"/>
<path d="M3510 4605 c-11 -13 -10 -14 4 -9 9 3 16 10 16 15 0 13 -6 11 -20 -6z"/>
<path d="M3713 4596 c-20 -22 -20 -23 -2 -34 25 -16 29 -15 29 6 0 10 5 23 11
29 7 7 6 12 -4 16 -8 3 -24 -5 -34 -17z"/>
<path d="M2175 4580 c-18 -20 -17 -20 25 -20 42 0 43 0 25 20 -10 11 -21 20
-25 20 -4 0 -15 -9 -25 -20z"/>
<path d="M4498 4553 c7 -3 16 -2 19 1 4 3 -2 6 -13 5 -11 0 -14 -3 -6 -6z"/>
<path d="M2020 4535 c0 -8 5 -15 10 -15 6 0 10 7 10 15 0 8 -4 15 -10 15 -5 0
-10 -7 -10 -15z"/>
<path d="M3474 4527 l-40 -20 38 -35 39 -35 -42 -43 c-24 -24 -40 -46 -37 -50
7 -6 126 34 142 47 5 4 0 31 -12 61 -11 29 -22 62 -24 72 -4 27 -17 27 -64 3z"/>
<path d="M2156 4448 c-15 -44 -26 -81 -24 -82 2 -1 35 -14 75 -28 82 -30 102
-20 52 28 -16 15 -29 33 -29 38 0 6 16 24 36 40 l37 29 -39 19 c-85 42 -78 45
-108 -44z"/>
<path d="M1987 4470 c3 -11 9 -20 13 -20 5 0 6 9 3 20 -3 11 -9 20 -13 20 -5
0 -6 -9 -3 -20z"/>
<path d="M4068 4458 c-14 -18 -28 -50 -32 -70 -4 -21 -10 -38 -14 -38 -4 1
-32 7 -62 14 -57 13 -59 16 -45 67 5 21 3 27 -15 32 -17 4 -22 0 -27 -24 -4
-23 -10 -28 -27 -24 -11 3 -40 9 -63 14 l-41 9 5 -34 c4 -25 2 -35 -11 -40 -9
-3 -16 -17 -16 -30 0 -22 2 -23 46 -17 57 7 60 2 70 -94 7 -79 1 -96 -55 -156
l-26 -29 30 -24 c17 -13 34 -24 38 -24 5 0 29 -14 53 -32 33 -23 47 -29 53
-20 5 9 17 5 42 -14 l34 -26 -65 3 c-36 2 -67 7 -70 10 -3 4 -21 10 -40 14
l-35 6 -24 -105 c-13 -58 -28 -106 -34 -106 -5 0 -22 9 -37 20 l-28 20 -38
-60 c-22 -33 -43 -60 -47 -60 -5 0 -23 10 -39 22 l-31 21 17 -25 c9 -13 28
-31 41 -38 22 -12 25 -19 19 -43 -6 -27 6 -46 28 -47 7 0 21 36 22 56 1 11 33
57 73 103 17 20 22 22 23 9 0 -11 13 -18 43 -23 64 -11 69 -12 115 -24 23 -7
47 -9 52 -6 5 3 11 1 15 -5 4 -6 11 -8 16 -5 14 9 11 45 -3 46 -29 1 30 18 66
18 l39 1 -7 78 c-9 105 -10 112 -26 122 -10 6 -2 22 34 67 l46 58 -24 22 c-14
11 -35 28 -48 37 l-22 16 27 83 c15 46 27 93 27 104 0 13 8 24 20 28 11 4 18
11 14 16 -3 5 -3 23 1 39 5 25 12 30 36 30 36 0 38 22 4 44 -79 51 -70 50 -97
14z m-211 -600 c-3 -8 -6 -5 -6 6 -1 11 2 17 5 13 3 -3 4 -12 1 -19z m10 -155
c-3 -10 -5 -4 -5 12 0 17 2 24 5 18 2 -7 2 -21 0 -30z m46 -30 c-7 -2 -19 -2
-25 0 -7 3 -2 5 12 5 14 0 19 -2 13 -5z"/>
<path d="M4345 4406 c-4 -31 -6 -58 -4 -60 2 -2 29 -6 61 -9 l56 -5 4 59 c3
57 2 59 -22 58 -14 -1 -39 2 -57 6 l-31 7 -7 -56z"/>
<path d="M1801 4431 c-11 -7 -11 -15 -2 -41 6 -18 11 -34 11 -36 0 -1 -18 -5
-40 -9 -22 -4 -40 -9 -40 -13 0 -3 8 -29 17 -59 13 -40 21 -53 36 -53 18 0 19
-5 14 -50 -3 -27 -2 -52 2 -54 12 -8 115 30 153 56 30 21 33 29 36 78 2 31 9
60 17 66 11 8 12 19 3 55 -6 24 -12 45 -13 47 -1 1 -31 -4 -66 -13 -84 -19
-86 -19 -93 10 -7 27 -13 30 -35 16z"/>
<path d="M2807 4357 c-16 -11 -16 -15 -3 -32 11 -16 17 -17 29 -7 8 7 22 9 32
6 12 -5 9 1 -8 20 -28 30 -28 30 -50 13z"/>
<path d="M3346 4298 c-23 -30 -24 -34 -9 -50 9 -10 23 -18 32 -18 10 0 6 -10
-15 -32 -17 -18 -40 -47 -52 -64 l-22 -32 42 -27 42 -28 26 32 c15 17 31 31
37 31 9 0 73 73 73 84 0 4 -17 22 -39 41 -22 20 -41 48 -45 65 -8 40 -37 39
-70 -2z"/>
<path d="M2295 4278 c-4 -18 -18 -40 -31 -51 -18 -14 -24 -28 -24 -59 0 -35 7
-46 54 -93 l53 -53 42 27 41 28 -29 40 c-16 23 -34 44 -40 48 -6 3 -16 15 -21
25 -10 18 -8 19 20 14 27 -6 30 -4 30 19 0 24 -58 87 -80 87 -4 0 -12 -14 -15
-32z"/>
<path d="M3114 4270 c-19 -20 -22 -20 -64 -5 -24 8 -47 12 -51 8 -4 -5 2 -27
12 -51 15 -35 23 -42 38 -37 14 4 30 -6 58 -35 l39 -42 48 56 47 55 -48 35
c-26 20 -50 36 -53 36 -3 0 -15 -9 -26 -20z"/>
<path d="M3615 4270 c-3 -6 1 -7 9 -4 18 7 21 14 7 14 -6 0 -13 -4 -16 -10z"/>
<path d="M2090 4236 c0 -2 8 -10 18 -17 15 -13 16 -12 3 4 -13 16 -21 21 -21
13z"/>
<path d="M3759 4188 c7 -9 9 -23 5 -30 -6 -10 -4 -11 7 0 11 10 10 15 -6 30
-17 15 -18 15 -6 0z"/>
<path d="M545 4130 l-48 -49 47 -56 48 -56 43 47 c24 26 46 52 48 59 3 6 -16
32 -42 58 l-47 47 -49 -50z"/>
<path d="M2900 4120 c-14 -34 -40 -40 -40 -9 0 22 -17 21 -72 -7 l-27 -14 19
-43 c17 -37 23 -42 52 -42 18 -1 47 -8 65 -17 l32 -16 11 34 c7 19 18 34 25
34 7 0 18 13 23 30 10 28 9 32 -26 55 -20 14 -40 25 -43 25 -4 0 -12 -13 -19
-30z"/>
<path d="M3730 4110 c-12 -16 -19 -30 -16 -30 2 0 14 14 26 30 12 17 19 30 16
30 -2 0 -14 -13 -26 -30z"/>
<path d="M4741 4131 c-9 -6 -11 -18 -7 -35 5 -22 11 -26 29 -20 32 9 36 16 26
42 -9 23 -25 28 -48 13z"/>
<path d="M4852 4091 c-11 -6 -10 -10 4 -15 20 -8 32 0 18 14 -5 5 -15 5 -22 1z"/>
<path d="M5291 4081 c-6 -10 -20 -44 -31 -75 -12 -31 -26 -56 -31 -56 -25 0
-4 -27 37 -46 l45 -21 20 38 c25 51 25 53 -17 73 -20 9 -34 19 -31 22 3 3 15
0 27 -6 24 -13 23 -14 39 18 14 25 4 44 -30 63 -14 7 -21 5 -28 -10z"/>
<path d="M4905 4071 c-17 -7 -15 -9 15 -19 36 -12 64 -11 76 1 4 3 -4 4 -17 2
-13 -3 -32 -2 -43 1 -15 5 -16 8 -5 15 17 11 1 11 -26 0z"/>
<path d="M5050 4065 c-7 -8 -16 -12 -21 -9 -17 10 -9 -5 15 -29 23 -23 24 -23
47 -6 23 17 23 18 5 38 -23 25 -30 26 -46 6z"/>
<path d="M1007 4050 c-3 -14 1 -24 15 -31 23 -12 23 -12 33 20 6 21 5 23 -14
18 -12 -3 -19 -1 -15 4 3 5 1 9 -4 9 -5 0 -12 -9 -15 -20z"/>
<path d="M2526 4030 c-48 -44 -62 -73 -24 -48 21 14 24 13 45 -15 21 -29 22
-32 6 -49 -29 -32 2 -19 35 15 38 39 39 50 8 101 l-24 38 -46 -42z"/>
<path d="M820 4027 c-13 -38 -13 -57 1 -57 5 0 7 4 4 10 -3 5 10 3 29 -5 30
-13 35 -13 40 1 15 38 6 59 -29 70 -33 10 -35 10 -45 -19z"/>
<path d="M1850 4041 c-25 -9 -51 -16 -58 -13 -7 2 -12 -4 -12 -13 0 -14 -6
-16 -31 -11 -29 6 -31 4 -25 -19 5 -21 2 -27 -21 -35 -16 -6 -37 -15 -48 -20
-18 -9 -18 -9 -1 -7 14 1 23 -10 38 -53 11 -34 15 -56 8 -58 -5 -2 -10 -8 -10
-13 0 -6 5 -7 12 -3 8 5 9 2 5 -10 -6 -15 16 -129 39 -207 4 -14 19 -12 125
14 116 29 120 30 115 53 -4 13 -3 24 1 24 13 0 64 -70 59 -79 -3 -5 3 -11 14
-14 20 -5 28 -27 10 -27 -12 0 -13 -20 -1 -39 7 -10 13 -11 30 -1 18 9 21 17
16 39 -5 24 0 32 30 55 30 23 33 29 21 41 -50 50 -71 129 -23 88 19 -16 18
-15 -3 17 -13 19 -25 36 -26 38 -1 2 -29 -17 -62 -42 -33 -25 -65 -46 -70 -46
-11 0 -22 33 -22 68 0 12 4 22 9 22 5 0 16 6 23 13 7 7 34 27 60 45 35 24 46
37 41 50 -10 25 -93 142 -102 142 -3 0 -16 -7 -27 -15 -19 -13 -22 -12 -34 10
-16 29 -21 30 -80 6z"/>
<path d="M3134 4021 c-17 -20 -25 -23 -36 -14 -11 9 -24 1 -66 -43 -42 -43
-50 -56 -37 -61 11 -4 15 -13 11 -29 -6 -24 8 -42 19 -24 4 6 18 2 36 -11 l31
-21 34 33 c19 18 34 29 34 24 0 -5 21 13 46 39 41 43 44 49 28 60 -11 8 -14
18 -9 26 5 8 4 11 -3 6 -5 -3 -23 4 -39 17 l-28 24 -21 -26z"/>
<path d="M756 4021 c-4 -5 -2 -12 3 -15 5 -4 12 -2 15 3 4 5 2 12 -3 15 -5 4
-12 2 -15 -3z"/>
<path d="M4976 4014 c-5 -14 -4 -15 9 -4 17 14 19 20 6 20 -5 0 -12 -7 -15
-16z"/>
<path d="M956 3985 c-15 -23 -15 -25 6 -39 21 -15 24 -14 41 3 21 20 17 35
-13 51 -14 8 -21 5 -34 -15z"/>
<path d="M4489 3984 c-11 -21 -10 -27 3 -40 19 -20 58 -10 58 14 -1 46 -41 63
-61 26z"/>
<path d="M726 3983 c-6 -14 -5 -15 5 -6 7 7 10 15 7 18 -3 3 -9 -2 -12 -12z"/>
<path d="M2750 3985 c0 -9 6 -12 15 -9 8 4 15 7 15 9 0 2 -7 5 -15 9 -9 3 -15
0 -15 -9z"/>
<path d="M1071 3958 c-7 -18 -4 -27 12 -39 25 -20 44 -15 53 14 4 14 1 25 -12
34 -26 19 -43 16 -53 -9z"/>
<path d="M4382 3968 c-17 -17 -15 -31 8 -45 16 -11 21 -9 34 9 14 19 14 23 -2
34 -21 17 -25 17 -40 2z"/>
<path d="M347 3954 c-15 -8 -27 -17 -27 -19 0 -13 25 -55 32 -55 8 0 47 18 56
25 2 2 -5 16 -15 33 -18 29 -20 29 -46 16z"/>
<path d="M4893 3954 c-3 -9 0 -20 8 -25 21 -13 29 -11 29 10 0 24 -29 36 -37
15z"/>
<path d="M1291 3943 l-23 -18 21 -19 c17 -15 23 -16 36 -6 18 15 19 21 2 44
-12 17 -14 17 -36 -1z"/>
<path d="M2331 3955 c0 -5 6 -19 14 -29 8 -11 15 -15 15 -10 0 6 -7 19 -15 30
-8 10 -14 15 -14 9z"/>
<path d="M5528 3933 c-45 -27 -47 -27 -67 -9 -20 18 -21 18 -38 -13 -10 -17
-23 -31 -29 -31 -17 0 -47 -37 -40 -49 5 -7 15 -7 32 -1 38 15 40 13 58 -30 9
-22 23 -40 31 -40 9 0 17 -14 21 -39 4 -27 15 -45 36 -61 l30 -22 29 28 c27
26 28 29 13 46 -15 16 -15 18 -1 24 15 5 14 11 -3 57 -19 48 -19 53 -4 64 9 7
22 14 28 16 14 5 -22 87 -38 87 -6 0 -32 -13 -58 -27z"/>
<path d="M746 3941 c14 -15 52 -22 59 -11 3 4 -3 7 -12 5 -10 -1 -27 2 -38 8
-15 7 -17 7 -9 -2z"/>
<path d="M2655 3930 c-3 -5 1 -10 9 -10 8 0 18 5 21 10 3 6 -1 10 -9 10 -8 0
-18 -4 -21 -10z"/>
<path d="M2670 3885 l-23 -25 23 -25 c28 -30 49 -19 45 26 -3 45 -18 53 -45
24z"/>
<path d="M5125 3889 c-27 -11 -52 -22 -53 -24 -5 -4 47 -115 53 -115 2 0 29 9
58 20 l54 20 -15 48 c-8 26 -17 53 -18 60 -4 16 -20 15 -79 -9z"/>
<path d="M633 3892 c-10 -7 -10 -12 0 -26 12 -17 14 -16 25 8 12 27 1 35 -25
18z"/>
<path d="M787 3893 c-14 -13 -6 -33 13 -33 22 0 23 1 14 24 -7 17 -16 20 -27
9z"/>
<path d="M1063 3872 c-17 -12 -20 -21 -13 -32 15 -23 12 -29 -10 -23 -11 3
-31 2 -45 -1 -25 -6 -33 -34 -19 -70 7 -18 39 -22 49 -6 13 21 32 8 45 -30 7
-22 17 -40 21 -40 5 0 8 -10 6 -22 -1 -14 4 -23 14 -26 18 -3 36 31 20 36 -21
7 -11 21 24 33 19 7 35 17 35 22 0 4 -11 25 -25 45 -31 45 -31 49 -2 73 21 19
21 20 1 14 -15 -4 -24 1 -34 20 -16 29 -36 31 -67 7z"/>
<path d="M2413 3874 c-16 -12 -20 -20 -14 -32 5 -10 13 -27 17 -39 l9 -23 33
26 32 26 -21 29 c-23 33 -26 34 -56 13z"/>
<path d="M4656 3815 c-4 -20 -6 -38 -4 -40 2 -2 20 -6 40 -10 36 -7 37 -6 44
29 8 44 7 45 -38 53 -34 5 -36 4 -42 -32z"/>
<path d="M475 3759 c-11 -32 -22 -49 -30 -45 -7 2 -24 -5 -38 -16 -25 -20 -25
-22 -11 -49 17 -34 17 -34 49 -13 19 12 23 22 19 40 l-6 24 48 -20 c26 -12 53
-19 59 -16 6 2 17 23 24 46 7 23 15 47 17 54 3 8 -16 19 -49 29 -30 9 -56 17
-60 17 -3 0 -13 -23 -22 -51z"/>
<path d="M3072 3777 c-8 -9 -6 -16 8 -24 14 -10 21 -9 30 2 13 16 5 35 -14 35
-8 0 -18 -6 -24 -13z"/>
<path d="M5056 3765 c4 -9 -3 -16 -20 -21 -31 -7 -69 -56 -60 -77 3 -9 13 -18
22 -22 16 -6 15 -8 -2 -20 -17 -13 -17 -16 15 -69 19 -31 40 -56 47 -56 6 0
12 -3 12 -7 0 -5 4 -14 9 -22 7 -11 15 -9 43 13 19 14 38 26 42 26 3 0 25 12
47 26 l41 26 -29 31 c-40 43 -73 92 -73 109 0 7 -23 28 -50 45 -28 18 -47 26
-44 18z"/>
<path d="M2355 3709 c-16 -35 -17 -42 -4 -50 9 -6 10 -12 4 -16 -6 -5 -39 -27
-73 -51 -34 -23 -62 -46 -62 -51 0 -6 92 -146 106 -160 2 -2 37 19 78 47 41
27 80 52 87 54 7 2 -9 32 -40 74 -49 68 -62 92 -41 79 8 -5 56 73 48 80 -9 7
-68 35 -76 35 -5 0 -17 -18 -27 -41z"/>
<path d="M4520 3730 c20 -13 33 -13 25 0 -3 6 -14 10 -23 10 -15 0 -15 -2 -2
-10z"/>
<path d="M2638 3708 c-21 -11 -38 -23 -38 -27 0 -3 12 -20 28 -36 21 -23 36
-30 69 -31 34 -2 42 2 47 20 8 30 7 36 -4 36 -6 0 -23 13 -38 29 l-27 30 -37
-21z"/>
<path d="M4363 3696 l-21 -33 26 -20 c48 -34 50 -34 73 3 l23 37 -30 23 c-38
31 -45 30 -71 -10z"/>
<path d="M799 3691 c-13 -36 -14 -37 -78 -12 l-49 18 -21 -38 c-14 -23 -18
-40 -11 -44 17 -11 11 -19 -35 -48 -25 -16 -45 -31 -45 -34 0 -3 9 -17 19 -32
10 -14 25 -41 33 -58 l13 -32 63 40 c34 22 60 44 57 49 -17 28 34 -1 83 -47
l27 -25 21 28 c21 25 23 26 45 11 17 -12 26 -14 36 -6 15 13 14 15 39 -91 9
-41 18 -76 18 -77 5 -7 76 19 71 26 -2 5 3 30 11 55 11 32 21 46 30 42 8 -3
30 18 57 56 41 57 43 64 35 98 l-10 37 -76 -18 c-42 -9 -79 -17 -82 -16 -3 1
-22 -5 -43 -12 -42 -14 -52 -10 -52 21 0 13 -16 29 -50 48 -29 17 -49 35 -49
44 1 9 -2 16 -6 16 -5 0 -16 7 -24 16 -15 14 -17 13 -27 -15z"/>
<path d="M1278 3687 c-34 -28 -34 -34 -5 -71 23 -28 25 -29 48 -13 13 9 27 17
31 17 4 0 15 -27 25 -60 13 -49 23 -64 54 -85 21 -14 44 -25 51 -25 22 0 198
61 198 69 0 7 -41 129 -55 163 -6 15 -16 10 -72 -32 -36 -28 -69 -50 -72 -50
-3 1 -21 21 -39 46 -26 34 -38 43 -53 39 -10 -4 -33 1 -51 9 -17 9 -32 16 -32
16 -1 -1 -13 -11 -28 -23z"/>
<path d="M3292 3690 c-23 -10 -42 -22 -42 -25 0 -3 7 -19 15 -35 9 -17 11 -30
6 -30 -14 0 -41 41 -41 63 0 16 -5 18 -31 13 -17 -3 -46 -6 -63 -6 -54 0 -59
-9 -47 -85 5 -38 14 -71 18 -76 4 -4 30 -1 58 6 42 11 51 11 60 -2 11 -14 32
-21 72 -22 15 -1 23 -9 28 -28 5 -24 51 -71 59 -61 21 25 106 158 106 164 0 5
-32 31 -71 58 -39 26 -74 56 -77 67 -7 17 -8 17 -50 -1z"/>
<path d="M4908 3698 c-36 -13 -35 -25 2 -30 28 -4 40 6 40 33 0 11 -7 10 -42
-3z"/>
<path d="M2466 3644 l-28 -25 23 -27 c13 -15 26 -29 27 -32 2 -3 15 8 28 23
18 21 22 33 15 46 -20 37 -35 41 -65 15z"/>
<path d="M3986 3605 l-26 -34 35 -27 c35 -26 36 -26 51 -8 34 44 36 55 17 70
-44 35 -50 35 -77 -1z"/>
<path d="M2802 3583 c-38 -43 -40 -49 -25 -60 9 -7 29 -13 45 -13 25 0 28 -4
28 -32 l0 -33 47 47 47 48 -44 45 c-24 25 -47 45 -50 45 -4 0 -25 -21 -48 -47z"/>
<path d="M4743 3576 c-18 -13 -30 -26 -26 -29 3 -4 -3 -7 -14 -7 -11 0 -23 3
-27 7 -4 5 -36 13 -71 18 l-63 11 49 -72 c42 -62 46 -74 33 -84 -13 -12 -13
-24 3 -66 2 -6 -16 -17 -42 -24 -25 -7 -44 -15 -41 -17 10 -11 153 -42 168
-37 10 3 22 23 28 47 6 23 15 52 20 65 6 13 10 36 10 52 0 32 30 70 55 70 21
0 19 14 -7 55 -27 41 -32 42 -75 11z"/>
<path d="M3817 3546 l-15 -45 39 -15 c22 -9 43 -16 48 -16 8 0 37 78 30 83
-25 15 -72 37 -79 37 -4 0 -15 -20 -23 -44z"/>
<path d="M1828 3543 c-43 -17 -43 -18 -23 -66 l15 -36 40 16 c22 9 40 19 40
23 0 9 -29 80 -33 79 -1 0 -19 -7 -39 -16z"/>
<path d="M5337 3480 c-20 -4 -40 -9 -43 -12 -5 -6 35 -88 43 -88 3 0 23 5 43
11 l38 12 -15 43 c-8 24 -18 43 -21 43 -4 -1 -24 -5 -45 -9z"/>
<path d="M3910 3438 l-31 -43 22 -17 c12 -10 17 -18 11 -18 -5 0 -13 -11 -16
-25 -4 -14 -11 -23 -16 -20 -5 3 -12 0 -16 -6 -4 -8 -3 -9 4 -5 8 5 12 0 12
-13 0 -14 -9 -21 -32 -26 -66 -13 -69 -15 -67 -48 2 -18 -5 -46 -14 -63 l-16
-30 42 -23 c44 -23 157 -53 157 -42 0 4 -5 12 -11 18 -8 8 -5 22 10 51 12 23
21 48 21 57 0 9 11 38 25 65 l25 50 -39 20 c-22 11 -43 25 -47 31 -5 8 -1 8
14 0 18 -10 24 -7 45 21 39 53 39 54 -3 82 -22 14 -42 26 -44 26 -2 0 -18 -19
-36 -42z m23 -225 c22 -12 27 -18 16 -20 -21 -5 -69 14 -69 27 0 15 16 12 53
-7z"/>
<path d="M2927 3453 c-3 -5 -8 -31 -12 -59 -6 -51 -6 -51 27 -64 18 -8 37 -20
41 -27 5 -8 15 -10 30 -4 22 8 69 15 91 12 6 -1 1 -7 -9 -15 -18 -13 -17 -15
12 -55 l30 -41 42 31 c23 16 41 33 39 37 -24 52 -78 103 -78 72 0 -5 -4 -10
-10 -10 -5 0 -10 12 -10 28 0 15 -3 44 -6 64 -6 35 -9 37 -33 31 -33 -9 -55
-9 -108 0 -23 4 -44 4 -46 0z"/>
<path d="M2550 3428 c0 -12 -3 -32 -5 -43 -8 -31 7 -44 57 -51 l46 -6 7 51 c4
29 5 54 4 56 -2 1 -28 6 -56 10 -51 7 -53 6 -53 -17z"/>
<path d="M5248 3392 c-32 -19 -33 -23 -13 -62 17 -34 19 -34 46 -20 26 15 24
2 -10 -48 l-28 -43 -48 70 c-27 39 -50 71 -53 71 -13 0 -141 -97 -139 -105 2
-5 34 -11 70 -13 l67 -3 0 -50 0 -50 33 25 c39 30 47 32 47 11 0 -17 36 -21
42 -4 2 7 27 -3 62 -27 54 -36 58 -40 53 -70 -5 -32 -5 -32 31 -27 114 17 117
18 118 38 2 45 3 46 24 35 19 -10 20 -8 20 38 l0 49 -44 6 c-24 4 -58 2 -75
-3 -24 -7 -31 -6 -31 6 0 8 9 14 20 14 21 0 26 16 10 40 -8 12 -13 13 -29 3
-16 -10 -22 -9 -37 8 -9 10 -24 18 -32 17 -11 -2 -20 11 -29 41 -12 42 -29 71
-42 71 -3 0 -18 -8 -33 -18z"/>
<path d="M3660 3379 c0 -5 4 -8 9 -5 5 4 11 0 14 -6 2 -7 8 -9 13 -5 5 4 2 12
-6 17 -20 13 -30 12 -30 -1z"/>
<path d="M1821 3356 c-1 -11 4 -16 13 -13 7 3 20 0 27 -6 11 -10 11 -9 0 5 -7
10 -17 16 -21 13 -5 -3 -11 1 -13 7 -3 8 -6 5 -6 -6z"/>
<path d="M2030 3360 c-13 -8 -12 -10 3 -10 9 0 17 5 17 10 0 12 -1 12 -20 0z"/>
<path d="M3347 3346 c5 -22 1 -25 -38 -33 -36 -7 -49 -16 -73 -52 l-29 -44 26
-23 c15 -13 34 -27 44 -32 16 -9 16 -12 -1 -37 -10 -15 -15 -29 -13 -32 3 -3
21 18 39 46 33 51 33 52 74 46 l42 -6 12 53 c6 29 14 60 16 69 3 11 -7 19 -36
28 -23 7 -40 18 -40 26 0 8 -6 15 -14 15 -9 0 -12 -8 -9 -24z"/>
<path d="M3865 3361 c-3 -5 -2 -12 3 -15 5 -3 9 1 9 9 0 17 -3 19 -12 6z"/>
<path d="M392 3340 c-7 -12 -10 -25 -7 -30 3 -4 -8 -18 -24 -30 l-30 -21 -21
21 c-23 23 -35 20 -43 -9 -5 -21 17 -36 35 -24 7 3 8 1 4 -6 -8 -13 47 -107
67 -114 7 -2 25 3 41 12 22 12 30 13 33 4 8 -21 41 -15 45 8 3 19 4 19 38 -6
l35 -26 3 46 3 45 53 0 c29 0 60 6 70 13 17 13 13 18 -54 65 l-74 52 -40 -56
c-36 -52 -40 -55 -53 -38 -7 10 -13 24 -13 32 0 17 -38 82 -48 82 -4 0 -13 -9
-20 -20z"/>
<path d="M4106 3309 c-15 -28 -26 -54 -26 -58 0 -4 20 -17 45 -29 25 -12 45
-25 45 -29 0 -5 -4 -25 -9 -46 -8 -34 -7 -38 15 -43 13 -3 24 -13 24 -21 0
-13 -9 -15 -45 -10 -42 4 -47 3 -60 -24 -8 -15 -15 -32 -15 -37 0 -5 23 -19
51 -32 40 -19 52 -21 58 -11 7 10 14 10 39 -3 40 -21 39 -21 57 15 15 29 18
30 34 15 24 -22 25 -21 61 24 l31 39 -43 31 -43 31 -17 -21 c-11 -13 -24 -20
-33 -16 -17 6 -18 16 -6 69 8 35 7 37 -18 43 -53 12 -53 11 -27 62 l25 49 -55
26 c-30 15 -56 27 -59 27 -2 0 -15 -23 -29 -51z"/>
<path d="M1517 3309 l-57 -29 26 -53 c27 -53 45 -72 54 -58 3 5 24 18 48 30
23 12 42 25 42 29 -1 4 -13 30 -28 59 l-27 51 -58 -29z"/>
<path d="M2080 3331 c0 -6 4 -13 10 -16 6 -3 7 1 4 9 -7 18 -14 21 -14 7z"/>
<path d="M2340 3319 c-19 -11 -45 -19 -57 -19 -27 0 -27 2 -7 -83 13 -53 20
-66 33 -63 9 3 42 10 73 17 62 13 63 15 37 87 -12 31 -11 32 5 32 7 0 16 9 19
19 3 15 -2 20 -25 25 -37 7 -35 8 -78 -15z"/>
<path d="M2735 3327 c-17 -13 -17 -14 4 -20 16 -4 21 -1 21 14 0 23 -1 23 -25
6z"/>
<path d="M4495 3330 c-3 -5 1 -10 9 -10 9 0 16 5 16 10 0 6 -4 10 -9 10 -6 0
-13 -4 -16 -10z"/>
<path d="M1743 3302 l-51 -27 26 -52 27 -51 53 27 c29 15 50 29 47 33 -6 6
-15 41 -19 73 -4 29 -24 28 -83 -3z"/>
<path d="M5687 3313 c-4 -3 -7 -16 -7 -29 0 -17 7 -23 30 -26 28 -4 30 -3 30
29 0 28 -4 33 -23 33 -13 0 -27 -3 -30 -7z"/>
<path d="M130 3271 c0 -20 3 -59 6 -87 l6 -51 71 -11 c77 -12 87 -8 87 34 0
19 -7 22 -67 28 -85 8 -119 26 -50 26 l47 0 0 40 c0 42 0 42 -72 53 -26 4 -28
2 -28 -32z"/>
<path d="M2096 3285 c-3 -9 -6 -22 -5 -28 0 -7 5 -1 10 12 5 13 8 26 5 28 -2
2 -6 -3 -10 -12z"/>
<path d="M3705 3263 c-23 -35 -24 -39 -8 -50 28 -21 42 -15 58 24 29 69 -7 88
-50 26z"/>
<path d="M3456 3228 c13 -63 15 -65 62 -55 23 4 42 11 42 15 -1 10 -87 72
-100 72 -8 0 -9 -11 -4 -32z"/>
<path d="M1080 3235 c0 -8 7 -15 15 -15 8 0 15 7 15 15 0 8 -7 15 -15 15 -8 0
-15 -7 -15 -15z"/>
<path d="M2156 3203 c-3 -25 -5 -48 -3 -49 2 -2 23 -4 47 -6 43 -3 44 -3 52
36 10 47 6 51 -48 60 l-41 6 -7 -47z"/>
<path d="M1895 3202 c-6 -37 -10 -41 -43 -47 -64 -11 -67 -15 -52 -85 15 -68
5 -65 104 -39 35 9 38 13 33 37 -3 15 -9 35 -12 45 -6 14 -1 17 28 17 35 0 36
1 43 45 3 25 5 48 3 50 -2 2 -25 6 -50 10 l-47 7 -7 -40z"/>
<path d="M886 3143 c-57 -80 -63 -93 -46 -93 6 0 41 -22 78 -50 48 -34 75 -47
89 -44 11 3 24 1 27 -5 13 -20 24 -11 30 24 8 40 4 40 92 19 64 -14 69 -14 81
2 7 10 13 21 13 24 0 11 -134 105 -151 106 -9 1 -46 22 -81 48 -36 25 -68 46
-71 46 -4 0 -31 -35 -61 -77z"/>
<path d="M4356 3204 c-22 -21 -20 -41 3 -47 14 -3 21 2 25 17 13 47 1 60 -28
30z"/>
<path d="M4447 3193 c-15 -4 -17 -11 -12 -31 9 -34 8 -34 39 -26 28 7 29 8 20
42 -6 22 -12 24 -47 15z"/>
<path d="M1216 3154 c-8 -29 -2 -38 30 -48 18 -5 23 -1 28 20 8 29 2 38 -30
48 -18 5 -23 1 -28 -20z"/>
<path d="M4562 3089 c-41 -28 -71 -56 -69 -63 14 -37 100 -145 110 -139 50 28
129 87 133 97 5 12 -85 155 -96 155 -3 0 -38 -23 -78 -50z"/>
<path d="M4776 3114 c-11 -28 -6 -54 9 -54 10 0 15 10 15 29 0 34 -15 49 -24
25z"/>
<path d="M3480 3093 c-11 -23 -14 -25 -17 -10 -3 9 -11 17 -18 17 -7 0 -21 3
-30 6 -13 5 -16 2 -13 -17 2 -19 9 -24 33 -25 17 -1 43 -6 60 -13 25 -10 31
-10 42 5 17 24 16 34 -4 50 -27 20 -38 17 -53 -13z"/>
<path d="M1345 3069 c-45 -34 -45 -37 -9 -85 25 -32 27 -33 49 -18 23 15 24
14 40 -15 l15 -31 36 17 c28 14 37 15 43 4 6 -10 21 -6 65 16 50 26 56 31 42
42 -9 8 -16 22 -16 31 0 16 -8 18 -63 15 -34 -2 -75 -7 -90 -10 -15 -4 -27 -3
-27 1 -1 5 -11 21 -23 36 l-22 27 -40 -30z"/>
<path d="M2180 3082 c-20 -16 -21 -21 -10 -41 8 -15 8 -21 1 -17 -6 4 -11 2
-11 -3 0 -16 26 -13 62 5 20 11 27 19 19 23 -7 4 -13 18 -14 29 -2 27 -17 28
-47 4z"/>
<path d="M2272 3079 c-26 -10 -25 -27 0 -43 22 -13 48 8 41 34 -6 22 -8 23
-41 9z"/>
<path d="M420 3060 c0 -5 5 -10 11 -10 5 0 7 5 4 10 -3 6 -8 10 -11 10 -2 0
-4 -4 -4 -10z"/>
<path d="M3255 3039 c-22 -17 -42 -35 -44 -42 -2 -7 0 -9 4 -5 9 9 35 -9 35
-24 0 -6 -14 -8 -30 -6 -42 6 -49 -8 -43 -77 l5 -60 63 3 63 4 -5 53 c-5 47
-3 54 15 59 43 14 47 33 17 77 -16 22 -31 42 -34 44 -4 2 -24 -10 -46 -26z
m42 -85 c-3 -3 -12 -4 -19 -1 -8 3 -5 6 6 6 11 1 17 -2 13 -5z"/>
<path d="M2364 3020 c-15 -22 -25 -42 -23 -43 69 -54 81 -60 77 -41 -2 16 3
19 32 19 19 0 45 6 58 13 22 13 22 14 5 42 -11 19 -23 28 -33 25 -9 -3 -25 2
-36 10 -31 24 -52 17 -80 -25z m94 -14 c-7 -8 -17 -12 -22 -9 -4 3 -2 9 5 14
22 13 31 11 17 -5z"/>
<path d="M3359 3044 c-10 -13 -10 -17 2 -25 18 -11 33 -6 37 13 4 22 -24 30
-39 12z"/>
<path d="M5628 3000 c-9 -33 -13 -62 -9 -64 3 -2 33 -6 66 -7 l59 -4 13 55 c6
30 10 56 8 58 -6 6 -78 21 -100 22 -17 0 -24 -11 -37 -60z"/>
<path d="M2864 3025 c-3 -8 -14 -15 -23 -15 -31 0 -42 -14 -28 -34 15 -20 47
-12 47 11 0 12 3 13 14 4 12 -10 17 -8 25 8 9 17 8 22 -9 31 -16 9 -22 8 -26
-5z"/>
<path d="M4960 3002 c0 -35 -3 -41 -27 -46 -16 -4 -35 -9 -45 -12 -12 -4 -18
4 -23 35 l-7 40 -41 -27 c-29 -19 -36 -28 -24 -30 9 -2 17 -11 17 -21 0 -9 7
-26 15 -37 8 -10 15 -29 15 -41 0 -13 6 -23 15 -23 8 0 19 -9 25 -20 10 -19
13 -19 69 19 37 25 61 50 65 66 5 18 13 25 31 25 23 0 25 3 25 50 0 50 0 50
-32 50 -18 0 -43 3 -55 6 -21 6 -23 3 -23 -34z"/>
<path d="M690 3010 l-45 -5 -3 -44 c-2 -24 0 -47 5 -52 4 -4 27 -5 50 -2 39 5
43 8 49 40 10 54 -3 69 -56 63z"/>
<path d="M3511 2994 c-6 -15 -10 -28 -9 -29 18 -15 53 -26 55 -18 2 6 10 19
18 29 14 18 14 18 15 -3 0 -15 6 -23 18 -23 28 0 44 16 40 41 -2 19 -8 23 -28
22 -14 -2 -34 -4 -45 -5 -11 0 -27 2 -36 6 -11 5 -19 -1 -28 -20z"/>
<path d="M3851 2994 c-15 -35 -14 -39 14 -52 22 -10 26 -9 40 18 15 29 14 30
-14 44 -27 14 -29 14 -40 -10z"/>
<path d="M5278 2973 l-3 -43 42 0 43 0 0 40 c0 25 -5 40 -12 41 -66 7 -66 7
-70 -38z"/>
<path d="M1818 2976 c-10 -7 -18 -18 -18 -24 0 -5 -6 -12 -13 -15 -7 -3 -20
-23 -29 -45 l-16 -41 39 -15 c54 -22 55 -21 73 25 12 30 14 45 6 54 -8 10 -7
14 2 17 10 4 10 10 1 31 -14 30 -20 32 -45 13z"/>
<path d="M2067 2984 c-23 -24 14 -67 43 -49 13 8 13 45 1 45 -5 0 -16 2 -23 5
-8 3 -17 2 -21 -1z"/>
<path d="M2158 2979 c-20 -11 -22 -27 -9 -48 7 -10 13 -11 30 -2 24 13 26 21
9 44 -10 12 -17 14 -30 6z"/>
<path d="M3100 2975 c-11 -13 -10 -18 6 -30 17 -12 21 -12 31 2 9 12 10 20 2
30 -15 17 -24 16 -39 -2z"/>
<path d="M370 2923 l0 -43 45 0 45 0 0 44 0 43 -45 -1 -45 -1 0 -42z"/>
<path d="M5470 2953 c-41 -8 -76 -16 -78 -17 -5 -6 20 -140 28 -149 6 -7 157
6 165 15 2 2 -1 21 -7 43 -5 22 -12 59 -15 83 -3 23 -8 42 -12 41 -3 0 -40 -8
-81 -16z"/>
<path d="M2302 2939 c2 -6 8 -10 13 -10 5 0 11 4 13 10 2 6 -4 11 -13 11 -9 0
-15 -5 -13 -11z"/>
<path d="M304 2925 c-4 -10 -16 -15 -33 -13 -21 2 -27 -1 -29 -22 -2 -21 4
-29 33 -43 45 -22 42 -22 60 13 20 39 19 57 -5 70 -16 9 -22 8 -26 -5z"/>
<path d="M3588 2913 c-41 -17 -43 -20 -28 -57 8 -23 12 -25 34 -15 20 10 28 9
42 -5 13 -13 19 -14 24 -5 9 14 -11 92 -25 95 -6 1 -27 -5 -47 -13z"/>
<path d="M3946 2905 c8 -35 10 -39 17 -28 3 5 -1 19 -9 33 l-14 25 6 -30z"/>
<path d="M3511 2899 c-15 -26 -10 -33 12 -16 10 7 13 17 9 24 -6 9 -11 6 -21
-8z"/>
<path d="M828 2893 c-33 -4 -38 -8 -38 -29 0 -24 -2 -25 -40 -19 l-40 7 0 -64
0 -64 34 -2 c26 -2 35 2 39 18 4 16 11 19 35 14 21 -4 31 -2 35 9 3 9 -1 18
-9 21 -21 8 -17 26 6 26 17 0 20 7 20 45 0 25 -1 44 -2 43 -2 -1 -20 -3 -40
-5z"/>
<path d="M2378 2862 c-8 -20 -15 -41 -17 -46 -1 -5 15 -17 37 -26 l39 -18 22
40 c12 23 20 42 19 43 -2 1 -22 12 -44 23 l-41 21 -15 -37z"/>
<path d="M2085 2854 c-20 -49 -20 -49 25 -67 l40 -16 15 36 c8 19 15 40 15 45
0 6 7 8 14 5 10 -4 13 -1 9 9 -6 17 -20 18 -25 3 -3 -8 -14 -7 -35 5 -42 21
-40 22 -58 -20z"/>
<path d="M2824 2844 c5 -21 12 -44 17 -51 8 -8 4 -10 -12 -6 -21 6 -22 4 -15
-28 4 -19 10 -51 13 -71 3 -21 9 -38 14 -38 19 0 115 23 122 29 11 10 -14 122
-29 128 -7 2 -21 0 -31 -5 -17 -9 -18 -7 -15 29 3 28 0 39 -9 39 -8 0 -25 3
-38 7 -23 6 -24 5 -17 -33z"/>
<path d="M3467 2866 c-4 -10 -1 -13 8 -9 8 3 12 9 9 14 -7 12 -11 11 -17 -5z"/>
<path d="M4485 2866 c-58 -14 -61 -22 -45 -102 10 -45 15 -54 28 -49 10 4 38
11 65 17 29 7 47 17 47 26 0 14 15 13 74 -5 14 -4 18 -1 13 10 -3 9 -9 31 -12
50 -5 28 -13 36 -33 40 -32 6 -33 6 -35 -22 -2 -30 -21 -20 -27 14 -6 34 -11
36 -75 21z"/>
<path d="M4337 2839 c7 -7 15 -10 18 -7 3 3 -2 9 -12 12 -14 6 -15 5 -6 -5z"/>
<path d="M348 2834 c-3 -5 -8 -30 -12 -56 -7 -43 -5 -47 16 -51 l23 -4 -22 -2
c-20 -1 -23 -7 -23 -41 0 -39 1 -40 35 -40 19 0 37 -6 42 -15 5 -9 17 -12 30
-9 20 6 22 13 25 110 2 57 3 104 3 104 0 6 -114 9 -117 4z m65 -121 c-7 -2
-19 -2 -25 0 -7 3 -2 5 12 5 14 0 19 -2 13 -5z"/>
<path d="M3140 2820 c0 -5 5 -10 10 -10 6 0 10 5 10 10 0 6 -4 10 -10 10 -5 0
-10 -4 -10 -10z"/>
<path d="M5176 2799 c-10 -53 -8 -59 24 -59 25 0 30 4 30 25 0 18 5 25 20 25
13 0 20 7 20 20 0 17 -7 20 -44 20 -41 0 -44 -2 -50 -31z"/>
<path d="M1056 2793 c-10 -25 -7 -51 7 -55 16 -6 77 10 77 20 0 32 -74 62 -84
35z"/>
<path d="M2336 2775 c-2 -7 1 -16 9 -19 7 -2 16 1 19 9 2 7 -1 16 -9 19 -7 2
-16 -1 -19 -9z"/>
<path d="M5010 2780 c-11 -8 -7 -9 15 -4 37 8 45 14 19 14 -10 0 -26 -5 -34
-10z"/>
<path d="M1297 2763 c-16 -3 -30 -10 -33 -18 -6 -14 13 -95 22 -95 3 0 24 5
48 11 l43 11 -10 49 c-10 51 -10 51 -70 42z"/>
<path d="M3750 2747 c-59 -13 -68 -27 -51 -77 5 -14 12 -38 16 -53 6 -31 -1
-30 95 -11 36 7 39 -8 5 -26 l-24 -13 30 -43 c16 -24 33 -44 36 -44 4 0 25 12
47 27 23 15 43 28 45 30 2 1 -4 9 -13 18 -21 21 -39 55 -33 62 3 2 21 0 40 -5
l35 -10 9 48 10 48 -43 11 c-24 6 -45 11 -48 11 -3 0 -8 -20 -11 -44 -4 -28
-15 -52 -29 -63 -11 -9 -16 -12 -10 -5 8 9 7 32 0 80 -13 76 -15 78 -106 59z"/>
<path d="M2380 2702 c-6 -24 -10 -45 -8 -47 9 -7 88 -22 93 -17 10 11 5 80 -7
89 -7 6 -25 12 -40 15 -24 5 -27 1 -38 -40z"/>
<path d="M3207 2743 c-26 -4 -27 -7 -21 -41 4 -20 7 -38 8 -39 1 -1 18 2 38 8
35 9 36 11 27 42 -5 17 -9 33 -9 34 0 2 -3 2 -7 2 -5 -1 -21 -4 -36 -6z"/>
<path d="M4080 2740 c0 -5 5 -10 11 -10 5 0 7 5 4 10 -3 6 -8 10 -11 10 -2 0
-4 -4 -4 -10z"/>
<path d="M3517 2724 c-22 -12 -26 -20 -21 -36 6 -22 7 -21 -39 -3 -8 3 -24
-18 -44 -58 l-31 -63 69 -38 c38 -20 69 -34 69 -29 0 4 7 16 14 26 13 16 16
16 61 -10 27 -15 45 -21 41 -14 -5 7 2 20 18 32 25 19 25 21 9 54 l-16 34 -38
-20 c-52 -26 -65 -25 -46 5 15 22 15 25 -1 31 -15 6 -15 7 3 17 11 6 22 12 23
14 8 6 -23 74 -33 74 -5 -1 -23 -8 -38 -16z"/>
<path d="M1907 2708 c-3 -13 -9 -46 -13 -74 l-6 -52 63 -8 c35 -5 68 -8 74 -9
5 0 13 20 17 45 4 25 9 57 12 71 5 25 2 26 -58 37 -83 16 -83 16 -89 -10z"/>
<path d="M4275 2720 c-3 -5 1 -10 9 -10 9 0 16 5 16 10 0 6 -4 10 -9 10 -6 0
-13 -4 -16 -10z"/>
<path d="M2141 2684 c-6 -14 -11 -29 -11 -33 0 -6 43 -31 54 -31 6 0 29 60 25
63 -2 2 -16 8 -30 14 -24 10 -28 9 -38 -13z"/>
<path d="M4174 2687 c3 -12 6 -30 6 -40 0 -10 12 -22 26 -28 32 -12 31 -13 39
32 7 36 6 36 -35 47 -40 10 -42 10 -36 -11z"/>
<path d="M1400 2690 c0 -8 8 -10 24 -6 22 5 25 2 37 -44 11 -42 17 -50 36 -50
17 0 24 7 29 28 3 15 8 34 10 44 6 22 -1 25 -74 34 -46 5 -62 3 -62 -6z"/>
<path d="M1737 2683 c-20 -3 -27 -9 -23 -21 3 -9 8 -33 11 -53 l7 -36 36 13
c46 15 51 4 18 -38 l-25 -32 46 -33 46 -33 28 38 c16 20 29 42 29 48 0 6 -20
25 -44 42 -35 25 -45 39 -50 72 -7 43 -9 43 -79 33z"/>
<path d="M4952 2658 c5 -34 38 -37 38 -4 0 20 -5 26 -21 26 -15 0 -20 -5 -17
-22z"/>
<path d="M714 2645 c-8 -20 4 -35 27 -35 23 0 26 35 3 44 -22 8 -24 8 -30 -9z"/>
<path d="M2237 2614 c-51 -31 -56 -37 -46 -55 17 -33 5 -32 -60 0 -68 35 -71
36 -71 19 0 -6 -7 -20 -17 -30 -15 -17 -14 -19 11 -41 l27 -23 -21 -27 c-27
-34 -22 -34 41 3 28 17 52 30 54 28 1 -2 9 -14 18 -27 l16 -24 12 26 c14 31
24 34 37 11 8 -14 16 -12 71 16 34 17 61 34 59 38 -30 61 -63 122 -68 121 -3
0 -31 -16 -63 -35z"/>
<path d="M1240 2604 c-34 -12 -34 -13 -7 -13 15 -1 27 -5 27 -11 0 -5 9 -10
19 -10 14 0 18 5 14 20 -7 28 -13 29 -53 14z"/>
<path d="M3107 2596 c-9 -7 -16 -24 -15 -37 2 -18 -3 -24 -27 -29 -16 -4 -68
-26 -113 -49 -60 -30 -82 -46 -78 -57 4 -10 -9 -6 -44 11 l-50 25 -17 -36 -18
-36 40 -32 c22 -17 50 -40 64 -52 l25 -21 -22 -28 c-12 -15 -19 -31 -16 -36
11 -18 34 -8 50 22 15 30 15 33 -4 52 l-20 20 70 88 c43 55 74 86 81 82 7 -4
33 -22 59 -40 27 -18 50 -28 53 -23 3 6 3 30 -1 55 -6 44 -6 45 25 51 42 9 44
15 15 52 -28 36 -32 37 -57 18z"/>
<path d="M895 2569 l-8 -33 -22 28 -22 28 -31 -19 -31 -19 21 -32 c19 -31 21
-32 44 -17 36 24 44 19 32 -21 -5 -20 -8 -37 -6 -38 2 -2 38 -10 81 -18 73
-14 77 -14 77 3 0 16 4 17 28 9 15 -6 37 -16 49 -22 27 -14 31 -11 48 39 l13
38 11 -42 c11 -38 31 -68 31 -44 0 5 18 12 40 16 22 4 42 10 44 14 3 4 0 28
-6 54 l-10 47 -71 -2 c-77 -2 -159 10 -152 22 2 3 -26 12 -63 20 -37 7 -72 15
-79 17 -6 3 -14 -10 -18 -28z m142 -81 c-3 -8 -6 -5 -6 6 -1 11 2 17 5 13 3
-3 4 -12 1 -19z"/>
<path d="M4991 2591 c-12 -8 -13 -14 -2 -37 13 -30 3 -44 -33 -44 -15 0 -17
-5 -11 -27 8 -35 7 -33 33 -26 12 3 22 11 22 19 0 7 25 21 55 30 64 20 73 39
16 31 -41 -5 -51 3 -51 44 0 21 -8 23 -29 10z"/>
<path d="M2532 2534 c-23 -30 -42 -57 -42 -62 1 -4 17 -20 38 -35 27 -21 37
-36 37 -57 0 -30 -6 -29 -50 3 -18 14 -22 13 -43 -12 -41 -46 -75 -91 -71 -95
2 -2 31 -22 63 -45 l59 -41 25 35 c14 19 32 35 41 35 9 1 37 29 63 63 38 50
44 63 30 66 -38 8 -66 23 -56 29 23 16 66 83 58 91 -16 13 -89 67 -99 74 -6 3
-30 -19 -53 -49z"/>
<path d="M4668 2567 c-31 -13 -48 -27 -48 -38 0 -14 -7 -17 -35 -14 -29 2 -35
0 -35 -16 0 -18 21 -24 77 -22 8 1 11 -8 8 -21 -17 -75 -25 -119 -23 -121 2
-2 22 -6 45 -10 42 -7 42 -7 52 32 6 21 11 53 11 71 0 61 25 30 32 -41 9 -94
12 -97 75 -80 49 15 51 16 43 43 -10 33 -5 40 27 40 26 0 28 8 12 81 l-11 51
-37 -6 c-20 -3 -52 -9 -72 -12 -33 -6 -37 -4 -45 22 -4 16 -8 35 -9 43 0 21
-15 21 -67 -2z m190 -162 c-3 -3 -9 2 -12 12 -6 14 -5 15 5 6 7 -7 10 -15 7
-18z m-31 9 c-3 -3 -12 -4 -19 -1 -8 3 -5 6 6 6 11 1 17 -2 13 -5z"/>
<path d="M602 2556 c-63 -16 -66 -18 -57 -46 6 -19 13 -21 72 -18 36 1 67 6
70 11 8 13 -8 67 -20 66 -7 0 -36 -6 -65 -13z"/>
<path d="M2831 2539 c-25 -41 -25 -42 -3 -62 16 -14 19 -13 45 7 l27 22 -24
33 -25 33 -20 -33z"/>
<path d="M4429 2542 c-6 -15 -13 -39 -16 -54 -5 -24 -1 -28 33 -37 65 -18 71
-16 83 37 5 26 7 50 3 53 -4 3 -26 11 -50 17 -42 10 -44 9 -53 -16z"/>
<path d="M3358 2544 c-9 -9 30 -166 43 -175 17 -10 60 56 51 79 -3 9 -1 13 5
9 6 -4 14 1 17 10 7 18 -12 35 -32 28 -7 -3 -10 0 -7 5 6 9 -69 53 -77 44z
m52 -93 c0 -5 -7 -12 -16 -15 -14 -5 -15 -4 -4 9 14 17 20 19 20 6z"/>
<path d="M2372 2487 c-12 -7 -19 -17 -15 -22 4 -4 2 -5 -4 -1 -18 10 -72 -24
-68 -43 6 -32 57 -112 69 -108 6 3 10 10 8 16 -1 7 2 10 7 7 11 -7 91 32 91
44 0 20 -13 39 -23 33 -5 -3 -7 -1 -3 5 5 8 -30 83 -37 82 -1 -1 -12 -6 -25
-13z"/>
<path d="M765 2447 c-3 -6 -11 -31 -20 -55 l-14 -43 27 -10 c70 -28 79 -28 91
-2 6 13 9 29 6 34 -4 5 -2 9 3 9 5 0 12 9 15 20 3 13 0 20 -10 20 -8 0 -12 -4
-9 -9 3 -5 -2 -15 -12 -22 -15 -12 -16 -12 -5 2 16 19 1 40 -40 57 -22 9 -29
9 -32 -1z m65 -21 c0 -2 -7 -9 -15 -16 -13 -11 -14 -10 -9 4 5 14 24 23 24 12z
m-45 -15 c3 -5 2 -12 -3 -15 -5 -3 -9 1 -9 9 0 17 3 19 12 6z m10 -63 c13 -2
16 -6 9 -11 -7 -4 -20 1 -31 11 -10 9 -14 14 -8 11 5 -4 19 -9 30 -11z"/>
<path d="M598 2428 c-16 -5 -28 -15 -28 -21 0 -18 24 -77 31 -77 10 0 79 30
79 34 0 2 -7 20 -15 40 -16 38 -23 41 -67 24z"/>
<path d="M4381 2383 c-31 -4 -33 -6 -27 -35 3 -17 6 -37 6 -45 0 -9 7 -13 18
-10 9 3 29 8 44 11 15 4 26 12 23 19 -2 6 -6 24 -9 40 -4 15 -10 26 -14 25 -4
0 -22 -3 -41 -5z"/>
<path d="M5096 2373 c-32 -14 -39 -14 -48 -2 -8 11 -9 10 -4 -4 4 -12 -2 -21
-18 -29 l-24 -10 20 -47 c11 -25 26 -60 33 -78 l13 -32 74 31 c40 17 74 32 76
33 8 7 -58 150 -69 152 -8 1 -31 -5 -53 -14z"/>
<path d="M3012 2367 l-54 -10 8 -46 c5 -25 8 -64 9 -85 0 -25 6 -43 17 -50 21
-13 36 0 20 16 -9 9 2 16 50 28 72 18 75 24 58 105 -13 62 -11 61 -108 42z"/>
<path d="M3758 2315 l-36 -64 65 -36 c36 -20 69 -33 73 -28 4 4 22 33 39 64
l31 56 -22 15 c-24 16 -105 58 -111 58 -2 0 -19 -29 -39 -65z"/>
<path d="M876 2321 c-10 -28 -16 -54 -13 -58 3 -4 -7 -8 -21 -9 -15 -1 -46
-10 -69 -20 l-41 -19 15 -38 c18 -43 13 -43 129 -11 61 16 62 17 54 45 -8 26
-6 29 14 29 18 0 25 10 38 49 l15 49 -39 12 c-22 6 -45 13 -52 16 -7 3 -19
-16 -30 -45z m44 -61 c0 -5 -7 -7 -15 -4 -8 4 -15 8 -15 10 0 2 7 4 15 4 8 0
15 -4 15 -10z"/>
<path d="M1860 2331 c-90 -52 -85 -40 -45 -110 19 -35 35 -66 35 -70 0 -3 -12
-24 -26 -44 -14 -21 -24 -40 -22 -41 1 -2 24 -17 50 -34 l46 -32 33 51 c35 55
36 50 -23 86 -16 10 -28 21 -28 25 0 4 17 17 38 27 68 37 67 32 33 99 -17 33
-34 62 -38 65 -5 2 -28 -8 -53 -22z"/>
<path d="M3440 2335 c-25 -26 -20 -43 23 -84 l26 -23 41 33 c46 37 45 40 -31
79 l-36 19 -23 -24z"/>
<path d="M3666 2337 c-13 -20 -16 -31 -8 -39 13 -13 35 24 30 50 -3 14 -7 11
-22 -11z"/>
<path d="M1230 2330 c-6 -11 -10 -31 -8 -43 2 -17 10 -21 42 -22 37 0 40 3 48
34 5 18 8 35 6 36 -2 2 -19 6 -40 10 -31 6 -38 4 -48 -15z"/>
<path d="M2240 2327 c0 -9 -12 -23 -27 -31 -57 -31 -57 -31 -32 -65 12 -17 28
-31 33 -30 6 0 28 20 48 43 l38 43 -30 28 c-23 22 -30 25 -30 12z"/>
<path d="M2002 2318 c-18 -18 -15 -36 9 -48 29 -16 35 -5 18 31 -11 24 -17 27
-27 17z"/>
<path d="M3273 2316 c-48 -10 -81 -26 -55 -26 6 0 9 -6 7 -12 -3 -7 -1 -20 4
-28 12 -17 36 -6 96 45 45 39 39 41 -52 21z"/>
<path d="M4275 2280 c-8 -16 -15 -31 -15 -34 0 -5 62 -27 65 -24 8 10 25 48
25 56 0 6 -14 15 -30 21 -28 9 -31 8 -45 -19z"/>
<path d="M1605 2283 c-7 -19 9 -38 24 -29 16 10 14 33 -3 39 -8 3 -17 -1 -21
-10z"/>
<path d="M3999 2264 c-19 -14 -41 -29 -49 -34 -16 -9 -7 -32 34 -83 l23 -29
47 33 c25 18 46 35 46 38 0 4 -15 27 -34 53 l-33 47 -34 -25z"/>
<path d="M1383 2270 c-28 -11 -28 -16 -3 -58 11 -18 20 -39 20 -47 0 -12 5
-12 35 1 l36 15 14 -35 c21 -50 20 -54 -25 -72 -36 -14 -39 -19 -34 -43 4 -14
7 -27 8 -28 1 0 39 7 86 17 47 11 90 19 96 19 8 1 8 17 -2 58 -7 31 -11 59 -9
61 2 3 23 -10 47 -27 23 -17 46 -31 50 -31 9 0 68 79 68 91 0 4 -21 22 -47 40
l-46 32 -19 -26 c-10 -14 -27 -36 -38 -49 l-19 -23 -7 33 c-8 37 -1 36 -99 16
-42 -9 -79 -14 -82 -11 -2 3 4 8 15 11 18 6 19 10 9 36 -12 32 -19 34 -54 20z"/>
<path d="M3348 2255 c-22 -29 -23 -45 -4 -45 7 0 19 -7 26 -15 20 -24 35 -18
54 21 9 20 16 38 14 39 -12 9 -49 25 -60 25 -7 0 -21 -11 -30 -25z"/>
<path d="M2310 2249 c-19 -12 -36 -23 -38 -24 -3 -3 18 -41 35 -64 4 -5 73 32
73 39 -1 3 -9 20 -18 37 l-17 33 -35 -21z"/>
<path d="M3187 2234 c-3 -3 -3 -12 0 -20 3 -8 0 -14 -7 -14 -6 0 -9 -8 -6 -18
4 -13 -4 -27 -25 -46 l-31 -28 -23 22 c-29 27 -67 21 -44 -7 13 -15 12 -15
-11 -2 -14 8 -42 27 -64 43 l-39 30 -29 -37 c-17 -20 -36 -37 -43 -37 -8 0
-25 15 -40 33 l-26 32 -24 -30 c-23 -28 -25 -28 -43 -12 -23 21 -36 21 -52 2
-17 -20 -27 -19 -47 5 -21 24 -63 27 -63 4 0 -10 5 -12 13 -7 6 4 -3 -12 -21
-35 -28 -35 -52 -47 -52 -26 0 3 4 3 9 -1 5 -3 17 5 25 17 14 19 14 24 1 38
-8 9 -15 22 -15 28 0 7 -9 12 -20 12 -14 0 -22 -10 -29 -38 -6 -21 -20 -48
-31 -60 -11 -11 -20 -24 -20 -28 0 -3 -14 -24 -32 -47 l-32 -40 39 -35 c22
-19 32 -32 23 -29 -19 7 -18 8 -37 -81 -7 -34 -6 -44 6 -51 11 -5 0 -11 -36
-18 -41 -8 -51 -8 -51 3 0 11 -19 14 -75 14 l-75 0 0 -75 0 -75 75 0 75 0 1
48 1 47 15 -57 c8 -32 20 -58 25 -58 6 0 37 7 70 16 55 14 61 14 72 -1 10 -14
19 -14 66 -4 30 6 63 15 72 20 11 6 36 2 73 -12 31 -12 60 -17 65 -13 4 5 15
32 25 61 10 29 22 50 25 48 4 -3 13 -32 20 -65 10 -48 16 -59 29 -56 9 3 46
13 84 22 37 9 67 21 67 26 0 5 -5 29 -11 53 -13 51 0 74 38 67 27 -5 26 0 9
-78 l-13 -62 59 -12 c33 -6 66 -14 73 -16 9 -4 17 12 25 53 6 32 13 65 16 74
4 13 -9 19 -58 29 -58 12 -61 13 -36 22 30 10 30 10 7 98 -8 31 -6 38 17 58
22 19 29 21 42 10 13 -11 12 -13 -11 -16 -23 -3 -27 -8 -27 -38 0 -19 3 -34 8
-34 4 0 8 -19 9 -42 2 -22 5 -43 7 -45 2 -2 21 -1 41 3 37 7 37 7 32 45 l-5
39 39 0 c38 0 39 1 39 37 0 28 8 45 32 70 l32 33 -41 42 c-42 42 -42 42 -63
23 -21 -19 -23 -19 -35 -2 -18 25 -37 21 -75 -18 -18 -19 -36 -33 -38 -30 -3
2 10 16 27 31 18 15 30 32 28 38 -7 17 36 14 57 -3 9 -8 20 -11 24 -7 4 4 -1
14 -11 21 -16 11 -17 16 -5 34 11 18 11 23 -2 31 -11 8 -12 12 -3 18 20 13 4
55 -18 49 -12 -3 -19 0 -19 9 0 14 -12 19 -23 8z m-93 -217 c4 4 4 -1 0 -11
-8 -21 -17 -9 -28 34 -5 23 -5 23 7 -3 7 -15 17 -24 21 -20z m-350 -13 c3 -9
6 -27 6 -41 0 -25 1 -26 50 -20 28 3 50 4 50 2 0 -2 -14 -13 -31 -25 l-30 -22
-25 23 -24 23 -38 -37 c-21 -20 -40 -37 -42 -37 -3 0 -5 15 -5 33 0 22 11 47
33 75 37 46 47 50 56 26z m-134 -64 c0 -5 -9 -6 -20 -3 -11 3 -17 9 -15 14 7
10 35 1 35 -11z m320 -11 c0 -6 -4 -7 -10 -4 -5 3 -10 11 -10 16 0 6 5 7 10 4
6 -3 10 -11 10 -16z m337 -7 c-10 -2 -17 -16 -19 -34 -4 -44 -28 -49 -28 -7 0
43 27 74 48 56 13 -11 13 -12 -1 -15z m-708 -24 c-13 -48 -11 -58 12 -58 18 0
20 -4 14 -32 -10 -45 -12 -48 -44 -48 l-28 0 13 57 c7 31 11 61 8 65 -5 8 22
48 32 48 1 0 -2 -15 -7 -32z m505 -14 c-33 -7 -50 -16 -52 -27 -5 -23 -24 -21
-40 4 -16 25 -20 22 48 47 51 19 56 19 74 4 17 -16 16 -17 -30 -28z m-399 -34
c3 -5 1 -10 -4 -10 -6 0 -11 5 -11 10 0 6 2 10 4 10 3 0 8 -4 11 -10z m160
-86 c-8 -6 -11 -15 -7 -19 4 -5 0 -6 -8 -3 -8 3 -41 14 -72 24 -54 16 -68 30
-51 47 3 4 17 -3 30 -15 l24 -22 26 27 27 27 23 -28 c19 -23 20 -29 8 -38z
m115 36 c0 -5 -5 -10 -11 -10 -5 0 -7 5 -4 10 3 6 8 10 11 10 2 0 4 -4 4 -10z
m-455 -50 c-3 -5 -10 -10 -16 -10 -5 0 -9 5 -9 10 0 6 7 10 16 10 8 0 12 -4 9
-10z m175 -15 c0 -1 -5 -17 -12 -36 -12 -34 -12 -34 -19 -9 -13 46 -11 59 11
53 11 -3 20 -6 20 -8z"/>
<path d="M4331 2173 c-12 -32 -21 -62 -20 -68 2 -9 52 -32 110 -50 12 -4 20 3
27 22 6 15 17 45 26 65 l16 37 -47 21 c-87 38 -87 38 -112 -27z"/>
<path d="M4910 2195 c0 -28 -5 -38 -25 -47 l-24 -11 26 -47 27 -48 40 25 c23
14 43 27 45 29 2 2 -6 18 -18 37 -11 19 -21 48 -21 66 0 26 -4 31 -25 31 -22
0 -25 -4 -25 -35z"/>
<path d="M3868 2137 l-47 -34 26 -39 c14 -21 29 -43 34 -48 8 -9 99 43 99 57
0 8 -58 97 -63 97 -1 0 -23 -15 -49 -33z"/>
<path d="M1103 2088 c-26 -12 -29 -36 -10 -62 13 -17 15 -17 45 -2 l31 16 -17
30 c-19 33 -18 33 -49 18z"/>
<path d="M4656 2091 c-4 -5 -19 -7 -35 -5 -42 7 -49 -21 -10 -42 17 -8 32 -14
34 -12 13 15 33 68 26 68 -5 0 -12 -4 -15 -9z"/>
<path d="M4152 2066 c-10 -22 -8 -25 18 -34 32 -12 43 0 33 37 -7 28 -37 27
-51 -3z"/>
<path d="M4342 2038 c6 -18 28 -21 28 -4 0 9 -7 16 -16 16 -9 0 -14 -5 -12
-12z"/>
<path d="M1340 2026 c0 -9 7 -16 16 -16 17 0 14 22 -4 28 -7 2 -12 -3 -12 -12z"/>
<path d="M3302 1839 c-33 -10 -33 -11 -27 -49 6 -38 5 -40 -19 -40 -25 0 -26
-1 -26 -70 l0 -70 75 0 75 0 0 70 c0 69 0 70 -27 70 -24 0 -25 1 -9 13 14 10
16 21 11 50 -4 20 -10 37 -14 36 -3 0 -21 -5 -39 -10z"/>
<path d="M3400 1680 l0 -70 75 0 75 0 0 70 0 70 -75 0 -75 0 0 -70z"/>
<path d="M1650 1493 l0 -73 70 0 70 0 0 73 0 72 -70 0 -70 0 0 -72z"/>
<path d="M1850 1493 l0 -73 75 0 75 0 0 69 0 69 -75 4 -75 3 0 -72z"/>
<path d="M2050 1495 l0 -75 75 0 75 0 0 75 0 75 -75 0 -75 0 0 -75z"/>
<path d="M2250 1490 l0 -80 80 0 80 0 0 80 0 80 -80 0 -80 0 0 -80z"/>
<path d="M2454 1556 c-3 -7 -4 -42 -2 -77 l3 -64 78 -3 77 -3 0 81 0 80 -75 0
c-54 0 -77 -4 -81 -14z"/>
<path d="M2660 1490 l0 -80 80 0 80 0 0 80 0 80 -80 0 -80 0 0 -80z"/>
<path d="M2862 1493 l3 -78 78 -3 77 -3 0 81 0 80 -80 0 -81 0 3 -77z"/>
<path d="M3070 1490 l0 -81 78 3 77 3 0 75 0 75 -77 3 -78 3 0 -81z"/>
<path d="M3272 1493 l3 -78 78 -3 77 -3 0 81 0 80 -80 0 -81 0 3 -77z"/>
<path d="M3480 1495 l0 -75 75 0 75 0 0 75 0 75 -75 0 -75 0 0 -75z"/>
<path d="M3690 1493 l0 -73 70 0 70 0 0 73 0 72 -70 0 -70 0 0 -72z"/>
<path d="M3890 1493 l0 -73 75 0 75 0 0 73 0 72 -75 0 -75 0 0 -72z"/>
<path d="M2143 1263 c-18 -3 -23 -11 -23 -33 0 -25 5 -30 35 -36 l35 -6 0
-269 0 -269 55 0 54 0 3 101 3 102 63 -102 63 -101 65 0 c50 0 63 3 58 13 -5
6 -39 55 -76 108 -37 54 -68 100 -68 104 0 3 28 43 63 88 89 115 88 107 15
107 l-63 -1 -60 -87 -60 -87 -3 188 -2 187 -68 -1 c-37 -1 -77 -4 -89 -6z"/>
<path d="M4288 1263 c-23 -4 -28 -9 -28 -33 0 -25 4 -29 40 -35 l40 -7 0 -269
0 -269 50 0 50 0 0 310 0 310 -62 -1 c-35 -1 -75 -4 -90 -6z"/>
<path d="M1238 1203 c-2 -9 -2 -137 0 -285 l3 -268 144 0 145 0 0 45 0 45 -95
0 -95 0 0 240 0 240 -49 0 c-38 0 -50 -4 -53 -17z"/>
<path d="M1721 1069 c-57 -11 -65 -20 -57 -63 4 -20 8 -36 9 -36 1 0 20 7 42
15 87 31 165 6 165 -54 0 -27 -3 -28 -56 -34 -67 -7 -141 -42 -168 -80 -14
-19 -21 -44 -21 -74 0 -38 5 -49 33 -74 52 -47 145 -39 197 17 l25 27 0 -32 0
-31 85 0 85 0 0 34 c0 33 -2 35 -37 38 l-38 3 -5 142 c-5 131 -7 143 -28 166
-40 42 -130 56 -231 36z m159 -254 c0 -25 -28 -73 -49 -85 -36 -19 -80 -12
-92 14 -22 48 19 84 99 85 31 1 42 -3 42 -14z"/>
<path d="M2761 1069 c-57 -11 -65 -20 -57 -63 4 -20 8 -36 9 -36 1 0 20 7 42
15 87 31 165 6 165 -54 0 -27 -3 -28 -56 -34 -67 -7 -141 -42 -168 -80 -14
-19 -21 -44 -21 -74 0 -38 5 -49 33 -74 52 -47 145 -39 197 17 l25 27 0 -32 0
-31 85 0 85 0 0 34 c0 33 -2 35 -37 38 l-38 3 -5 142 c-5 131 -7 143 -28 166
-40 42 -130 56 -231 36z m159 -254 c0 -25 -28 -73 -49 -85 -36 -19 -80 -12
-92 14 -22 48 19 84 99 85 31 1 42 -3 42 -14z"/>
<path d="M3430 1064 c-19 -8 -45 -27 -57 -42 l-23 -27 0 38 0 37 -62 0 c-91 0
-108 -7 -108 -41 0 -23 5 -29 21 -29 11 0 29 -5 40 -10 18 -10 19 -23 19 -175
l0 -165 50 0 50 0 0 118 c1 161 29 222 104 222 47 0 56 -29 56 -192 l0 -148
50 0 50 0 0 170 c0 193 -8 222 -65 246 -43 18 -80 17 -125 -2z"/>
<path d="M3858 1068 l-48 -10 0 -44 c0 -24 2 -44 4 -44 2 0 23 7 46 15 89 31
155 11 162 -49 3 -29 2 -30 -69 -42 -120 -20 -173 -67 -173 -154 0 -33 6 -48
29 -71 25 -24 37 -29 81 -29 57 0 81 10 123 48 l27 26 -6 -32 -6 -32 86 0 86
0 0 35 c0 33 -2 35 -35 35 l-35 0 -1 123 c0 143 -11 184 -57 210 -40 24 -144
31 -214 15z m162 -262 c0 -39 -46 -86 -84 -86 -37 0 -56 15 -56 45 0 38 40 63
103 64 33 1 37 -2 37 -23z"/>
<path d="M2080 448 c-19 -12 -36 -22 -38 -23 -1 -1 0 -9 4 -18 5 -15 9 -15 42
-1 47 19 54 27 46 47 -8 22 -12 21 -54 -5z"/>
<path d="M3333 463 c-38 -5 -45 -30 -10 -35 22 -3 22 -6 25 -160 l3 -158 29 0
30 0 -2 177 c-3 198 2 186 -75 176z"/>
<path d="M1596 445 c-19 -20 -20 -27 -4 -43 29 -29 82 3 61 36 -14 23 -38 26
-57 7z"/>
<path d="M3850 445 c-20 -25 -8 -50 25 -50 21 0 31 5 33 18 4 21 -14 47 -33
47 -7 0 -18 -7 -25 -15z"/>
<path d="M1323 421 c-55 -26 -83 -78 -83 -158 0 -109 52 -156 168 -151 63 3
67 4 70 28 3 24 1 25 -53 22 -69 -5 -100 13 -116 68 -16 52 1 110 39 140 21
18 37 21 74 17 41 -3 48 -1 54 16 4 11 1 23 -7 28 -24 15 -102 9 -146 -10z"/>
<path d="M1788 433 c-13 -3 -18 -15 -18 -44 0 -35 -3 -39 -25 -39 -33 0 -35
-37 -2 -42 21 -3 22 -9 25 -88 2 -46 8 -90 14 -97 6 -7 31 -13 59 -13 42 0 49
3 49 20 0 15 -7 20 -24 20 -32 0 -34 4 -37 85 l-3 70 32 3 c24 2 32 8 32 22 0
14 -9 20 -32 22 -32 3 -33 4 -30 46 4 43 0 46 -40 35z"/>
<path d="M4140 353 c-8 -3 -25 -15 -37 -26 l-23 -20 0 22 c0 20 -4 22 -47 19
-36 -2 -49 -7 -51 -20 -3 -13 3 -18 22 -18 l26 0 0 -100 0 -100 30 0 30 0 0
73 c0 79 16 117 51 117 14 0 19 7 19 30 0 17 -1 30 -2 29 -2 0 -10 -3 -18 -6z"/>
<path d="M1550 330 c0 -13 7 -20 20 -20 19 0 20 -7 20 -100 l0 -100 30 0 30 0
0 120 0 120 -50 0 c-43 0 -50 -3 -50 -20z"/>
<path d="M1999 322 c-59 -52 -48 -178 17 -202 28 -11 114 -13 138 -4 9 3 16
14 16 23 0 15 -8 17 -59 13 -52 -4 -60 -2 -75 19 -30 43 -22 49 64 49 l80 0 0
31 c0 65 -35 98 -102 99 -38 0 -54 -6 -79 -28z m102 -12 c10 -6 19 -20 19 -30
0 -17 -7 -20 -50 -20 -54 0 -61 9 -30 40 23 23 33 24 61 10z"/>
<path d="M2556 329 c-17 -13 -26 -30 -26 -47 0 -37 8 -47 55 -68 27 -13 40
-26 40 -39 0 -17 -8 -20 -47 -23 -40 -3 -48 -6 -48 -23 0 -16 7 -19 54 -19 69
0 106 26 106 76 0 30 -5 36 -51 59 -62 32 -64 57 -4 65 27 3 41 10 43 23 5 27
-86 24 -122 -4z"/>
<path d="M2808 321 c-27 -24 -32 -36 -36 -89 -4 -58 -3 -63 26 -92 27 -26 38
-30 86 -30 56 0 70 7 61 32 -3 8 -21 13 -46 13 -49 0 -69 22 -69 75 0 48 36
84 79 78 24 -4 30 0 34 19 4 22 1 23 -49 23 -45 0 -59 -5 -86 -29z"/>
<path d="M3061 324 c-56 -47 -61 -156 -9 -196 32 -24 113 -24 155 2 59 36 69
145 18 196 -35 35 -121 34 -164 -2z m119 -34 c41 -41 10 -140 -44 -140 -58 0
-85 103 -37 141 30 24 56 24 81 -1z"/>
<path d="M3533 343 c-7 -2 -13 -13 -13 -22 0 -16 7 -17 50 -13 54 5 80 -8 80
-39 0 -14 -7 -19 -30 -19 -67 0 -120 -39 -120 -89 0 -52 83 -70 135 -29 l28
22 -5 -22 c-6 -20 -3 -22 43 -22 42 0 49 3 49 20 0 13 -7 20 -20 20 -18 0 -20
7 -20 75 0 67 -3 79 -25 100 -20 21 -33 25 -82 24 -32 0 -64 -3 -70 -6z m117
-136 c0 -27 -31 -57 -59 -57 -32 0 -46 21 -28 43 22 27 87 37 87 14z"/>
<path d="M3800 331 c0 -13 8 -21 23 -23 21 -3 22 -8 25 -100 l3 -98 29 0 30 0
0 120 0 120 -55 0 c-48 0 -55 -3 -55 -19z"/>
<path d="M4260 322 c-55 -55 -49 -166 10 -197 29 -15 114 -20 144 -9 9 3 16
14 16 23 0 15 -8 17 -59 13 -52 -4 -60 -2 -75 19 -30 43 -22 49 64 49 l80 0 0
40 c0 60 -33 90 -100 90 -43 0 -56 -5 -80 -28z m101 -12 c10 -6 19 -20 19 -30
0 -17 -7 -20 -50 -20 -27 0 -50 4 -50 8 0 18 29 44 58 51 2 1 12 -4 23 -9z"/>
</g>
</svg>
