<?xml version="1.0" standalone="no"?>
<!DOCTYPE svg PUBLIC "-//W3C//DTD SVG 20010904//EN"
 "http://www.w3.org/TR/2001/REC-SVG-20010904/DTD/svg10.dtd">
<svg version="1.0" xmlns="http://www.w3.org/2000/svg"
 width="1000.000000pt" height="1000.000000pt" viewBox="0 0 1000.000000 1000.000000"
 preserveAspectRatio="xMidYMid meet">

<g transform="translate(0.000000,1000.000000) scale(0.100000,-0.100000)"
fill="#000000" stroke="none">
<path d="M5534 8462 c9 -9 117 -42 138 -42 9 0 19 -4 23 -9 3 -6 -9 -8 -27 -7
-18 2 -23 1 -10 -1 23 -4 23 -7 20 -88 -2 -46 0 -81 4 -79 4 2 9 0 13 -6 3 -5
-1 -10 -9 -10 -22 0 -20 -20 2 -20 9 -1 33 -14 52 -31 32 -28 33 -29 8 -18
-16 7 -28 16 -28 21 0 4 -6 8 -13 8 -8 0 -68 20 -133 45 -214 82 -374 113
-620 122 -318 11 -593 -45 -872 -177 -548 -261 -939 -769 -1046 -1360 -40
-217 -42 -375 -11 -607 98 -717 627 -1325 1330 -1528 200 -58 406 -82 595 -70
160 9 237 24 110 20 -52 -1 -78 -1 -57 2 37 4 37 5 37 49 0 39 -3 44 -22 45
-22 1 -22 1 2 8 23 7 21 9 -20 18 -39 9 -24 11 102 12 380 3 728 104 1033 301
108 70 105 68 213 160 342 290 574 707 636 1140 53 374 6 718 -143 1049 -152
338 -420 641 -731 828 -116 70 -266 143 -293 143 -7 0 -17 4 -22 9 -10 9 -24
14 -150 49 -97 27 -118 32 -111 24z m-269 -502 c592 -53 1077 -504 1181 -1100
13 -74 15 -131 11 -260 -6 -175 -19 -248 -68 -394 -25 -77 -112 -255 -140
-290 -5 -6 -30 -40 -56 -76 -113 -153 -294 -302 -499 -410 -32 -18 -58 -36
-57 -40 1 -4 -5 -6 -15 -3 -9 2 -33 -3 -52 -12 -28 -13 -30 -15 -8 -11 14 3
33 9 42 12 31 12 15 -11 -22 -32 -20 -11 -59 -33 -85 -48 -175 -99 -485 -168
-686 -152 -350 29 -632 155 -866 391 -195 196 -311 413 -371 695 -26 126 -24
371 4 507 56 261 183 495 369 679 66 65 213 184 228 184 2 0 33 17 67 38 125
76 316 139 497 163 78 11 289 7 391 -6 58 -8 17 5 -61 19 -41 8 -64 14 -51 15
19 1 22 6 22 42 0 53 -20 73 -66 66 -18 -3 -34 -2 -34 3 0 5 28 11 63 14 34 3
76 8 92 9 17 2 37 5 45 5 8 1 65 -3 125 -8z"/>
<path d="M5590 8420 c8 -5 20 -10 25 -10 6 0 3 5 -5 10 -8 5 -19 10 -25 10 -5
0 -3 -5 5 -10z"/>
<path d="M5188 4633 c6 -2 18 -2 25 0 6 3 1 5 -13 5 -14 0 -19 -2 -12 -5z"/>
<path d="M3560 3848 c-46 -106 -100 -231 -121 -278 -20 -47 -74 -170 -119
-275 -46 -104 -91 -208 -100 -230 -56 -124 -210 -485 -210 -490 0 -3 55 -4
122 -3 l123 3 38 90 c20 50 44 101 51 115 l15 25 327 0 327 0 39 -90 c21 -49
43 -102 49 -117 l11 -28 124 0 c68 0 124 2 124 5 0 3 -19 47 -41 97 -74 166
-105 237 -289 663 -100 231 -203 470 -230 530 -26 61 -54 125 -61 143 -12 29
-18 32 -54 32 l-41 0 -84 -192z m137 -271 c34 -74 224 -560 220 -563 -2 -2
-110 -3 -239 -2 l-235 3 116 292 c64 161 119 292 122 293 3 0 10 -10 16 -23z"/>
<path d="M4597 4013 c-3 -7 -2 -1344 2 -1415 l1 -28 115 0 115 0 0 300 0 300
348 2 347 3 0 100 0 100 -347 3 -348 2 0 215 0 215 348 2 347 3 0 100 0 100
-462 3 c-254 1 -464 -1 -466 -5z"/>
<path d="M5760 3294 l0 -726 313 5 c335 4 368 9 512 70 185 78 329 242 391
442 14 47 18 94 19 210 0 130 -3 160 -23 225 -41 129 -111 235 -213 320 -81
67 -129 94 -234 129 -129 42 -213 51 -506 51 l-259 0 0 -726z m640 491 c190
-60 311 -186 350 -367 18 -78 8 -237 -19 -313 -31 -86 -106 -183 -181 -233
-104 -70 -166 -85 -377 -90 l-183 -4 0 517 0 517 178 -5 c128 -3 192 -9 232
-22z"/>
<path d="M3097 2164 c-25 -48 -97 -222 -97 -233 0 -20 35 -11 45 12 8 18 19
22 67 25 54 3 59 1 70 -23 11 -24 48 -36 48 -15 0 5 -20 55 -45 110 -25 55
-45 104 -45 108 0 5 -6 17 -14 27 -13 18 -14 17 -29 -11z m53 -150 c0 -10 -12
-14 -40 -14 l-39 0 15 43 c8 23 17 49 20 57 5 15 44 -60 44 -86z"/>
<path d="M3329 2167 c-75 -49 -85 -138 -24 -205 26 -29 40 -35 83 -40 44 -4
58 -1 92 22 39 26 55 57 48 93 -3 15 -14 19 -66 21 -57 3 -63 1 -60 -15 2 -13
13 -18 38 -18 26 0 35 -5 38 -19 10 -48 -97 -65 -142 -22 -37 34 -37 103 0
140 31 30 81 35 119 10 31 -20 64 -12 44 12 -39 47 -117 57 -170 21z"/>
<path d="M3600 2055 l0 -135 85 0 c78 0 85 2 85 20 0 18 -7 20 -66 20 l-65 0
3 43 3 42 45 0 c35 0 45 4 48 18 3 14 -4 17 -47 17 l-51 0 0 35 0 35 66 0 c57
0 65 2 62 18 -3 14 -16 17 -86 20 l-82 3 0 -136z"/>
<path d="M3840 2055 c0 -130 1 -135 21 -135 19 0 20 5 17 85 -2 47 0 85 3 85
4 0 40 -38 80 -84 41 -47 77 -85 82 -85 4 -1 7 60 7 135 0 124 -2 135 -17 132
-15 -3 -18 -17 -21 -90 l-3 -87 -80 89 c-45 50 -83 90 -85 90 -2 0 -4 -61 -4
-135z"/>
<path d="M4195 2174 c-94 -49 -99 -179 -10 -234 53 -33 136 -21 173 23 10 11
9 17 -3 27 -13 11 -19 9 -36 -8 -45 -49 -142 -15 -155 52 -7 38 15 89 45 106
31 16 86 12 110 -9 23 -20 55 -18 48 2 -14 44 -119 69 -172 41z"/>
<path d="M4438 2064 c-2 -68 -1 -129 0 -134 2 -6 42 -10 88 -10 77 0 84 2 84
20 0 18 -7 20 -65 20 l-65 0 0 39 0 40 47 3 c36 2 49 7 51 21 3 14 -4 17 -47
17 l-51 0 0 35 0 35 66 0 c57 0 65 2 62 18 -3 14 -16 17 -85 19 l-82 2 -3
-125z"/>
<path d="M4816 2182 c-3 -3 -6 -63 -6 -134 0 -121 1 -128 20 -128 18 0 20 7
20 55 l0 55 55 0 c48 0 55 2 55 20 0 18 -7 20 -55 20 l-55 0 0 40 0 40 66 0
c57 0 65 2 62 18 -3 14 -16 17 -80 18 -42 1 -79 -1 -82 -4z"/>
<path d="M5039 2180 c-1 -5 -1 -17 -1 -25 0 -210 2 -235 21 -235 17 0 20 8 23
53 3 44 6 52 23 52 12 0 34 -20 59 -52 22 -31 47 -53 57 -53 27 0 24 11 -15
61 l-34 45 24 27 c42 49 26 110 -33 126 -48 14 -123 14 -124 1z m125 -46 c9
-8 16 -20 16 -26 0 -24 -34 -48 -67 -48 -33 0 -33 1 -33 45 0 45 0 45 34 45
19 0 42 -7 50 -16z"/>
<path d="M5392 2154 c-11 -22 -32 -68 -47 -104 -15 -36 -34 -80 -42 -97 -12
-31 -12 -33 7 -33 12 0 25 10 32 25 10 23 17 25 70 25 53 0 60 -2 70 -25 11
-24 48 -36 48 -16 0 13 -100 244 -110 255 -5 4 -17 -9 -28 -30z m25 -152 c-21
-2 -41 -1 -43 1 -2 2 2 19 9 38 8 19 17 43 21 54 6 17 12 10 30 -35 l22 -55
-39 -3z"/>
<path d="M5590 2055 c0 -128 1 -135 20 -135 18 0 20 7 20 85 0 47 3 85 6 85 7
0 101 -101 136 -145 11 -14 24 -25 29 -25 6 0 8 53 7 132 -3 117 -5 133 -20
136 -16 3 -18 -6 -18 -82 0 -47 -4 -86 -8 -86 -5 0 -41 38 -81 85 -41 47 -77
85 -82 85 -5 0 -9 -61 -9 -135z"/>
<path d="M5951 2173 c-45 -23 -71 -67 -71 -125 0 -54 29 -97 80 -118 17 -7 29
-18 27 -24 -2 -6 3 -17 12 -23 14 -11 13 -13 -6 -19 -28 -8 -30 -24 -4 -24 29
0 47 28 33 51 -16 26 -15 29 11 29 29 0 87 36 87 54 0 23 -22 31 -35 12 -17
-23 -78 -31 -114 -17 -57 24 -69 105 -22 152 36 36 86 39 125 8 18 -14 31 -18
37 -12 16 16 0 40 -36 57 -42 20 -81 20 -124 -1z"/>
<path d="M6264 2153 c-9 -21 -33 -77 -55 -126 -21 -48 -39 -92 -39 -97 0 -21
37 -9 48 15 10 22 18 25 66 25 47 0 57 -3 73 -26 11 -15 27 -25 36 -23 13 3 8
22 -34 119 -28 63 -53 123 -56 133 -9 27 -23 20 -39 -20z m48 -103 l16 -50
-39 0 c-21 0 -39 4 -39 10 0 17 32 90 39 90 4 0 14 -22 23 -50z"/>
<path d="M6470 2056 c0 -130 1 -136 20 -136 20 0 20 5 18 132 -3 117 -5 133
-20 136 -16 3 -18 -8 -18 -132z"/>
<path d="M6614 2172 c-50 -41 -38 -83 37 -127 42 -24 54 -37 54 -56 0 -20 -6
-25 -33 -27 -22 -2 -41 3 -53 14 -18 17 -49 13 -49 -6 0 -16 62 -50 93 -50 30
0 67 16 79 34 14 20 8 73 -9 88 -10 9 -37 25 -61 37 -34 17 -43 27 -40 44 4
26 50 36 73 17 16 -13 45 -7 45 9 0 12 -63 41 -92 41 -12 0 -32 -8 -44 -18z"/>
<path d="M6837 2184 c-4 -4 -7 -65 -7 -136 l0 -128 85 0 c78 0 85 2 85 20 0
18 -7 20 -65 20 l-65 0 0 43 0 42 47 0 c37 0 48 4 51 18 3 14 -4 17 -47 17
l-51 0 0 35 0 35 66 0 c57 0 65 2 62 18 -3 14 -16 17 -79 20 -41 1 -78 0 -82
-4z"/>
<path d="M4036 1781 c-10 -10 -13 -22 -8 -25 10 -6 52 21 52 35 0 16 -26 10
-44 -10z"/>
<path d="M3004 1727 c-2 -7 -3 -67 -2 -133 l3 -119 62 2 c69 1 108 17 135 53
48 66 27 154 -46 190 -49 23 -144 28 -152 7z m136 -42 c17 -9 33 -28 39 -48
23 -67 -26 -127 -103 -127 l-36 0 0 95 0 95 35 0 c20 0 49 -7 65 -15z"/>
<path d="M3292 1608 l3 -132 55 -3 c73 -4 120 4 120 22 0 10 -18 15 -67 17
l-68 3 0 40 0 40 48 3 c32 2 47 8 47 17 0 9 -15 15 -47 17 -46 3 -48 4 -51 36
l-3 32 65 0 c59 0 66 2 66 20 0 18 -7 20 -85 20 l-86 0 3 -132z"/>
<path d="M3662 1608 l3 -133 64 3 c78 3 119 24 145 75 22 47 16 94 -20 136
-29 34 -77 51 -147 51 l-48 0 3 -132z m131 80 c34 -18 46 -40 47 -84 0 -55
-33 -87 -92 -88 l-43 -1 -3 93 -3 92 36 0 c20 0 46 -5 58 -12z"/>
<path d="M3950 1611 l0 -130 53 -5 c28 -4 66 -4 82 -2 17 3 33 5 38 5 4 1 7 8
7 16 0 11 -16 15 -67 17 l-68 3 -3 43 -3 42 50 0 c38 0 51 4 51 14 0 11 -14
16 -47 18 -46 3 -48 4 -51 36 l-3 32 65 0 c59 0 66 2 66 20 0 18 -7 20 -85 20
l-85 0 0 -129z"/>
<path d="M4171 1732 c17 -47 115 -262 120 -262 6 0 101 207 114 248 6 21 4 23
-16 20 -19 -2 -30 -19 -58 -90 -19 -49 -37 -85 -40 -82 -3 3 -22 42 -41 87
-29 65 -41 83 -59 85 -13 2 -22 -1 -20 -6z"/>
<path d="M4470 1610 c0 -130 0 -130 24 -130 12 0 51 -3 85 -6 58 -7 61 -6 61
15 0 19 -5 21 -65 21 l-65 0 0 45 0 45 50 0 c38 0 50 4 50 15 0 11 -12 15 -50
15 l-50 0 0 35 0 35 65 0 c58 0 65 2 65 20 0 18 -7 20 -85 20 l-85 0 0 -130z"/>
<path d="M4707 1734 c-4 -4 -7 -63 -7 -130 0 -142 -4 -137 105 -132 45 2 60 7
60 18 0 11 -15 16 -60 20 l-60 5 -1 110 c0 88 -4 111 -15 113 -8 1 -18 0 -22
-4z"/>
<path d="M4974 1730 c-30 -12 -71 -64 -79 -100 -9 -41 9 -91 45 -125 25 -24
39 -29 83 -29 86 -1 147 54 147 133 0 38 -31 92 -64 112 -32 20 -95 24 -132 9z
m119 -50 c33 -26 42 -69 23 -113 -22 -54 -77 -73 -129 -45 -34 18 -46 40 -47
84 0 82 88 125 153 74z"/>
<path d="M5237 1733 c-11 -10 -8 -251 2 -257 15 -10 41 5 39 22 -1 10 0 32 0
50 2 31 3 32 46 32 86 0 124 73 67 131 -26 25 -37 29 -89 29 -32 0 -62 -3 -65
-7z m131 -57 c16 -35 -9 -66 -53 -66 -31 0 -33 2 -37 41 -2 22 -2 42 1 45 2 2
21 4 41 4 29 0 39 -5 48 -24z"/>
<path d="M5475 1728 c-2 -7 -3 -67 -2 -133 2 -113 3 -120 22 -120 17 0 20 8
23 53 l3 52 45 0 c86 0 122 73 65 131 -26 26 -36 29 -91 29 -39 0 -62 -4 -65
-12z m133 -52 c16 -35 -9 -66 -53 -66 -31 0 -33 2 -37 41 -2 22 -2 42 1 45 2
2 21 4 41 4 29 0 39 -5 48 -24z"/>
<path d="M5717 1733 c-2 -4 -5 -63 -6 -130 l-2 -121 53 -6 c76 -8 122 -2 126
18 3 13 -7 16 -62 16 l-66 0 0 45 0 45 45 0 c33 0 45 4 45 15 0 11 -12 15 -45
15 -45 0 -45 0 -45 35 l0 35 66 0 c57 0 65 2 62 18 -3 14 -16 17 -85 20 -45 1
-83 -1 -86 -5z"/>
<path d="M5952 1608 c3 -110 6 -133 18 -133 12 0 16 17 18 78 2 42 6 77 10 77
4 -1 22 -22 41 -47 l34 -47 43 50 44 49 0 -82 c0 -72 2 -81 18 -79 15 3 17 18
20 134 1 73 0 132 -4 132 -8 0 -29 -25 -74 -89 -19 -28 -38 -51 -42 -51 -4 0
-31 32 -59 70 -28 39 -55 70 -60 70 -6 0 -8 -54 -7 -132z"/>
<path d="M6287 1733 c-4 -3 -7 -62 -7 -129 l0 -123 35 -7 c19 -3 59 -4 88 0
28 3 53 6 55 6 1 0 2 7 2 15 0 12 -15 15 -71 15 l-70 0 3 43 3 42 48 3 c33 2
47 7 47 18 0 10 -13 14 -50 14 l-50 0 0 35 0 35 65 0 c58 0 65 2 65 20 0 18
-7 20 -78 20 -43 0 -82 -3 -85 -7z"/>
<path d="M6520 1611 c0 -72 4 -132 8 -135 21 -13 31 15 34 91 l3 82 78 -90
c43 -50 81 -88 84 -86 6 7 6 258 -1 264 -3 3 -12 3 -21 0 -12 -5 -15 -24 -15
-89 l-1 -83 -31 35 c-84 94 -127 140 -132 140 -4 0 -6 -58 -6 -129z"/>
<path d="M6787 1726 c-8 -21 2 -26 47 -26 l41 0 0 -107 c0 -101 1 -108 20
-108 19 0 20 8 23 108 l3 107 39 0 c33 0 40 3 40 20 0 19 -7 20 -104 20 -80 0
-105 -3 -109 -14z"/>
</g>
</svg>
