<?xml version="1.0" encoding="UTF-8"?>
<!DOCTYPE svg PUBLIC "-//W3C//DTD SVG 1.1//EN" "http://www.w3.org/Graphics/SVG/1.1/DTD/svg11.dtd">
<svg version="1.2" width="101.7mm" height="55mm" viewBox="0 0 10170 5500" preserveAspectRatio="xMidYMid" fill-rule="evenodd" stroke-width="28.222" stroke-linejoin="round" xmlns="http://www.w3.org/2000/svg" xmlns:ooo="http://xml.openoffice.org/svg/export" xmlns:xlink="http://www.w3.org/1999/xlink" xmlns:presentation="http://sun.com/xmlns/staroffice/presentation" xmlns:smil="http://www.w3.org/2001/SMIL20/" xmlns:anim="urn:oasis:names:tc:opendocument:xmlns:animation:1.0" xmlns:svg="urn:oasis:names:tc:opendocument:xmlns:svg-compatible:1.0" xml:space="preserve">
 <defs class="ClipPathGroup">
  <clipPath id="presentation_clip_path" clipPathUnits="userSpaceOnUse">
   <rect x="0" y="0" width="10170" height="5500"/>
  </clipPath>
  <clipPath id="presentation_clip_path_shrink" clipPathUnits="userSpaceOnUse">
   <rect x="10" y="5" width="10150" height="5489"/>
  </clipPath>
 </defs>
 <defs class="TextShapeIndex">
  <g ooo:slide="id1" ooo:id-list="id3 id4 id5 id6 id7 id8 id9 id10 id11 id12 id13 id14 id15 id16 id17 id18 id19 id20 id21 id22 id23 id24 id25 id26 id27 id28 id29 id30 id31 id32 id33 id34 id35 id36 id37 id38"/>
 </defs>
 <defs class="EmbeddedBulletChars">
  <g id="bullet-char-template-57356" transform="scale(0.00048828125,-0.00048828125)">
   <path d="M 580,1141 L 1163,571 580,0 -4,571 580,1141 Z"/>
  </g>
  <g id="bullet-char-template-57354" transform="scale(0.00048828125,-0.00048828125)">
   <path d="M 8,1128 L 1137,1128 1137,0 8,0 8,1128 Z"/>
  </g>
  <g id="bullet-char-template-10146" transform="scale(0.00048828125,-0.00048828125)">
   <path d="M 174,0 L 602,739 174,1481 1456,739 174,0 Z M 1358,739 L 309,1346 659,739 1358,739 Z"/>
  </g>
  <g id="bullet-char-template-10132" transform="scale(0.00048828125,-0.00048828125)">
   <path d="M 2015,739 L 1276,0 717,0 1260,543 174,543 174,936 1260,936 717,1481 1274,1481 2015,739 Z"/>
  </g>
  <g id="bullet-char-template-10007" transform="scale(0.00048828125,-0.00048828125)">
   <path d="M 0,-2 C -7,14 -16,27 -25,37 L 356,567 C 262,823 215,952 215,954 215,979 228,992 255,992 264,992 276,990 289,987 310,991 331,999 354,1012 L 381,999 492,748 772,1049 836,1024 860,1049 C 881,1039 901,1025 922,1006 886,937 835,863 770,784 769,783 710,716 594,584 L 774,223 C 774,196 753,168 711,139 L 727,119 C 717,90 699,76 672,76 641,76 570,178 457,381 L 164,-76 C 142,-110 111,-127 72,-127 30,-127 9,-110 8,-76 1,-67 -2,-52 -2,-32 -2,-23 -1,-13 0,-2 Z"/>
  </g>
  <g id="bullet-char-template-10004" transform="scale(0.00048828125,-0.00048828125)">
   <path d="M 285,-33 C 182,-33 111,30 74,156 52,228 41,333 41,471 41,549 55,616 82,672 116,743 169,778 240,778 293,778 328,747 346,684 L 369,508 C 377,444 397,411 428,410 L 1163,1116 C 1174,1127 1196,1133 1229,1133 1271,1133 1292,1118 1292,1087 L 1292,965 C 1292,929 1282,901 1262,881 L 442,47 C 390,-6 338,-33 285,-33 Z"/>
  </g>
  <g id="bullet-char-template-9679" transform="scale(0.00048828125,-0.00048828125)">
   <path d="M 813,0 C 632,0 489,54 383,161 276,268 223,411 223,592 223,773 276,916 383,1023 489,1130 632,1184 813,1184 992,1184 1136,1130 1245,1023 1353,916 1407,772 1407,592 1407,412 1353,268 1245,161 1136,54 992,0 813,0 Z"/>
  </g>
  <g id="bullet-char-template-8226" transform="scale(0.00048828125,-0.00048828125)">
   <path d="M 346,457 C 273,457 209,483 155,535 101,586 74,649 74,723 74,796 101,859 155,911 209,963 273,989 346,989 419,989 480,963 531,910 582,859 608,796 608,723 608,648 583,586 532,535 482,483 420,457 346,457 Z"/>
  </g>
  <g id="bullet-char-template-8211" transform="scale(0.00048828125,-0.00048828125)">
   <path d="M -4,459 L 1135,459 1135,606 -4,606 -4,459 Z"/>
  </g>
  <g id="bullet-char-template-61548" transform="scale(0.00048828125,-0.00048828125)">
   <path d="M 173,740 C 173,903 231,1043 346,1159 462,1274 601,1332 765,1332 928,1332 1067,1274 1183,1159 1299,1043 1357,903 1357,740 1357,577 1299,437 1183,322 1067,206 928,148 765,148 601,148 462,206 346,322 231,437 173,577 173,740 Z"/>
  </g>
 </defs>
 <g>
  <g id="id2" class="Master_Slide">
   <g id="bg-id2" class="Background"/>
   <g id="bo-id2" class="BackgroundObjects"/>
  </g>
 </g>
 <g class="SlideGroup">
  <g>
   <g id="container-id1">
    <g id="id1" class="Slide" clip-path="url(#presentation_clip_path)">
     <g class="Page">
      <g class="com.sun.star.drawing.ClosedBezierShape">
       <g id="id3">
        <rect class="BoundingBox" stroke="none" fill="none" x="1183" y="1310" width="113" height="182"/>
        <path fill="rgb(35,31,32)" stroke="none" d="M 1261,1431 C 1261,1442 1259,1450 1255,1455 1251,1460 1247,1462 1239,1462 1231,1462 1227,1460 1222,1455 1218,1449 1216,1442 1216,1431 L 1216,1310 1183,1310 1183,1431 C 1183,1450 1189,1464 1199,1474 1210,1485 1222,1490 1239,1490 1256,1490 1268,1485 1279,1474 1289,1464 1295,1450 1295,1431 L 1295,1310 1261,1310 1261,1431 Z"/>
       </g>
      </g>
      <g class="com.sun.star.drawing.PolyPolygonShape">
       <g id="id4">
        <rect class="BoundingBox" stroke="none" fill="none" x="1322" y="1310" width="119" height="178"/>
        <path fill="rgb(35,31,32)" stroke="none" d="M 1408,1423 L 1407,1423 1356,1310 1322,1310 1322,1487 1356,1487 1356,1374 1408,1487 1440,1487 1440,1310 1408,1310 1408,1423 Z"/>
       </g>
      </g>
      <g class="com.sun.star.drawing.PolyPolygonShape">
       <g id="id5">
        <rect class="BoundingBox" stroke="none" fill="none" x="1472" y="1310" width="35" height="178"/>
        <path fill="rgb(35,31,32)" stroke="none" d="M 1506,1310 L 1472,1310 1472,1487 1506,1487 1506,1310 Z"/>
       </g>
      </g>
      <g class="com.sun.star.drawing.PolyPolygonShape">
       <g id="id6">
        <rect class="BoundingBox" stroke="none" fill="none" x="1526" y="1310" width="130" height="178"/>
        <path fill="rgb(35,31,32)" stroke="none" d="M 1608,1487 L 1655,1310 1621,1310 1593,1442 1592,1449 1591,1449 1590,1442 1561,1310 1526,1310 1573,1487 1608,1487 Z"/>
       </g>
      </g>
      <g class="com.sun.star.drawing.PolyPolygonShape">
       <g id="id7">
        <rect class="BoundingBox" stroke="none" fill="none" x="1674" y="1310" width="102" height="178"/>
        <path fill="rgb(35,31,32)" stroke="none" d="M 1774,1460 L 1707,1460 1707,1410 1764,1410 1764,1382 1707,1382 1707,1338 1774,1338 1774,1310 1674,1310 1674,1487 1774,1487 1774,1460 Z"/>
       </g>
      </g>
      <g class="com.sun.star.drawing.ClosedBezierShape">
       <g id="id8">
        <rect class="BoundingBox" stroke="none" fill="none" x="1798" y="1310" width="120" height="178"/>
        <path fill="rgb(35,31,32)" stroke="none" d="M 1853,1389 L 1831,1389 1831,1338 1853,1338 C 1860,1338 1865,1341 1868,1345 1872,1350 1874,1357 1874,1365 1874,1373 1872,1379 1868,1383 1865,1387 1860,1389 1853,1389 Z M 1870,1424 C 1873,1429 1875,1436 1875,1445 L 1875,1457 C 1875,1463 1875,1469 1876,1475 1876,1480 1878,1485 1881,1487 L 1916,1487 1916,1485 C 1912,1482 1910,1478 1909,1473 1908,1467 1907,1462 1907,1457 L 1907,1444 C 1907,1434 1906,1425 1902,1418 1898,1411 1892,1406 1883,1403 1891,1399 1896,1393 1900,1387 1904,1380 1906,1372 1906,1363 1906,1346 1902,1334 1892,1324 1883,1314 1870,1310 1853,1310 L 1798,1310 1798,1487 1831,1487 1831,1417 1855,1417 C 1861,1417 1866,1419 1870,1424 Z"/>
       </g>
      </g>
      <g class="com.sun.star.drawing.ClosedBezierShape">
       <g id="id9">
        <rect class="BoundingBox" stroke="none" fill="none" x="1932" y="1307" width="114" height="185"/>
        <path fill="rgb(35,31,32)" stroke="none" d="M 1996,1384 C 1986,1379 1979,1375 1975,1372 1971,1368 1969,1363 1969,1356 1969,1350 1971,1345 1974,1340 1978,1336 1983,1334 1990,1334 1997,1334 2002,1337 2006,1342 2010,1347 2012,1353 2012,1362 L 2044,1362 C 2044,1345 2039,1332 2029,1322 2019,1312 2006,1307 1990,1307 1975,1307 1962,1312 1952,1321 1940,1330 1935,1342 1935,1356 1935,1372 1940,1383 1949,1391 1958,1399 1971,1407 1989,1413 1997,1417 2003,1421 2006,1425 2010,1429 2012,1434 2012,1441 2012,1448 2010,1453 2007,1457 2003,1461 1998,1463 1991,1463 1982,1463 1976,1460 1971,1456 1967,1451 1965,1443 1965,1432 L 1932,1432 1932,1433 C 1931,1451 1937,1465 1950,1475 1961,1485 1975,1490 1991,1490 2007,1490 2020,1485 2030,1477 2039,1468 2044,1456 2044,1441 2044,1426 2040,1414 2032,1406 2024,1397 2012,1390 1996,1384 Z"/>
       </g>
      </g>
      <g class="com.sun.star.drawing.PolyPolygonShape">
       <g id="id10">
        <rect class="BoundingBox" stroke="none" fill="none" x="2071" y="1310" width="35" height="178"/>
        <path fill="rgb(35,31,32)" stroke="none" d="M 2071,1487 L 2105,1487 2105,1310 2071,1310 2071,1487 Z"/>
       </g>
      </g>
      <g class="com.sun.star.drawing.PolyPolygonShape">
       <g id="id11">
        <rect class="BoundingBox" stroke="none" fill="none" x="2124" y="1310" width="111" height="178"/>
        <path fill="rgb(35,31,32)" stroke="none" d="M 2124,1338 L 2162,1338 2162,1487 2195,1487 2195,1338 2234,1338 2234,1310 2124,1310 2124,1338 Z"/>
       </g>
      </g>
      <g class="com.sun.star.drawing.PolyPolygonShape">
       <g id="id12">
        <rect class="BoundingBox" stroke="none" fill="none" x="2284" y="1265" width="57" height="34"/>
        <path fill="rgb(35,31,32)" stroke="none" d="M 2340,1265 L 2304,1265 2284,1298 2311,1298 2340,1265 Z"/>
       </g>
      </g>
      <g class="com.sun.star.drawing.PolyPolygonShape">
       <g id="id13">
        <rect class="BoundingBox" stroke="none" fill="none" x="2254" y="1310" width="101" height="178"/>
        <path fill="rgb(35,31,32)" stroke="none" d="M 2287,1460 L 2287,1410 2345,1410 2345,1382 2287,1382 2287,1338 2354,1338 2354,1310 2254,1310 2254,1487 2354,1487 2354,1460 2287,1460 Z"/>
       </g>
      </g>
      <g class="com.sun.star.drawing.ClosedBezierShape">
       <g id="id14">
        <rect class="BoundingBox" stroke="none" fill="none" x="1182" y="1521" width="113" height="179"/>
        <path fill="rgb(35,31,32)" stroke="none" d="M 1261,1624 C 1261,1638 1258,1649 1253,1658 1248,1666 1241,1670 1232,1670 L 1216,1670 1216,1549 1232,1549 C 1241,1549 1248,1553 1253,1561 1258,1570 1261,1581 1261,1594 L 1261,1624 Z M 1234,1521 L 1183,1521 1183,1699 1234,1699 C 1251,1699 1266,1692 1278,1678 1289,1664 1294,1646 1294,1625 L 1294,1595 C 1294,1573 1289,1556 1278,1542 1266,1528 1251,1521 1234,1521 Z"/>
       </g>
      </g>
      <g class="com.sun.star.drawing.PolyPolygonShape">
       <g id="id15">
        <rect class="BoundingBox" stroke="none" fill="none" x="1322" y="1521" width="101" height="179"/>
        <path fill="rgb(35,31,32)" stroke="none" d="M 1356,1620 L 1412,1620 1412,1593 1356,1593 1356,1549 1422,1549 1422,1521 1322,1521 1322,1699 1422,1699 1422,1670 1356,1670 1356,1620 Z"/>
       </g>
      </g>
      <g class="com.sun.star.drawing.PolyPolygonShape">
       <g id="id16">
        <rect class="BoundingBox" stroke="none" fill="none" x="1500" y="1521" width="93" height="179"/>
        <path fill="rgb(35,31,32)" stroke="none" d="M 1532,1521 L 1500,1521 1500,1699 1591,1699 1591,1670 1532,1670 1532,1521 Z"/>
       </g>
      </g>
      <g class="com.sun.star.drawing.PolyPolygonShape">
       <g id="id17">
        <rect class="BoundingBox" stroke="none" fill="none" x="1573" y="1521" width="130" height="179"/>
        <path fill="rgb(35,31,32)" stroke="none" d="M 1639,1597 L 1638,1597 1610,1521 1573,1521 1622,1633 1622,1699 1654,1699 1654,1635 1702,1521 1667,1521 1639,1597 Z"/>
       </g>
      </g>
      <g class="com.sun.star.drawing.ClosedBezierShape">
       <g id="id18">
        <rect class="BoundingBox" stroke="none" fill="none" x="1710" y="1519" width="119" height="183"/>
        <path fill="rgb(35,31,32)" stroke="none" d="M 1795,1635 C 1795,1648 1792,1658 1788,1664 1783,1671 1777,1674 1769,1674 1760,1674 1754,1671 1749,1664 1745,1658 1743,1648 1743,1635 L 1743,1586 C 1743,1573 1745,1563 1749,1557 1753,1550 1760,1547 1768,1547 1777,1547 1783,1550 1788,1557 1792,1563 1795,1573 1795,1586 L 1795,1635 Z M 1768,1519 C 1751,1519 1737,1525 1726,1536 1715,1549 1710,1565 1710,1586 L 1710,1635 C 1710,1656 1715,1672 1726,1684 1737,1696 1751,1701 1769,1701 1786,1701 1801,1696 1811,1684 1823,1672 1828,1656 1828,1635 L 1828,1586 C 1828,1565 1823,1549 1811,1536 1800,1525 1786,1519 1768,1519 Z"/>
       </g>
      </g>
      <g class="com.sun.star.drawing.PolyPolygonShape">
       <g id="id19">
        <rect class="BoundingBox" stroke="none" fill="none" x="1856" y="1521" width="119" height="179"/>
        <path fill="rgb(35,31,32)" stroke="none" d="M 1942,1634 L 1941,1634 1889,1521 1856,1521 1856,1699 1889,1699 1889,1585 1942,1699 1974,1699 1974,1521 1942,1521 1942,1634 Z"/>
       </g>
      </g>
      <g class="com.sun.star.drawing.ClosedBezierShape">
       <g id="id20">
        <rect class="BoundingBox" stroke="none" fill="none" x="1178" y="2916" width="1178" height="966"/>
        <path fill="rgb(35,31,32)" stroke="none" d="M 2264,2916 C 2264,3080 2264,3293 2264,3295 2264,3568 2042,3790 1770,3790 1769,3790 1768,3790 1767,3790 1766,3790 1765,3790 1763,3790 1490,3790 1269,3568 1269,3295 1269,3293 1269,3080 1269,2916 L 1178,2916 C 1178,3080 1178,3293 1178,3295 1178,3619 1440,3881 1763,3881 1765,3881 1766,3881 1767,3881 1768,3881 1769,3881 1770,3881 2093,3881 2355,3619 2355,3295 2355,3293 2355,3080 2355,2916 L 2264,2916 Z"/>
       </g>
      </g>
      <g class="com.sun.star.drawing.ClosedBezierShape">
       <g id="id21">
        <rect class="BoundingBox" stroke="none" fill="none" x="1359" y="2916" width="815" height="785"/>
        <path fill="rgb(35,31,32)" stroke="none" d="M 2082,2916 C 2082,3081 2081,3294 2081,3295 2081,3467 1941,3607 1769,3607 1768,3607 1767,3607 1766,3607 1765,3607 1764,3607 1763,3607 1591,3607 1451,3467 1451,3295 1451,3294 1451,3081 1451,2916 L 1359,2916 1360,3199 C 1360,3256 1360,3294 1360,3295 1360,3517 1541,3699 1763,3699 1764,3699 1765,3699 1766,3699 1767,3699 1768,3699 1769,3699 1991,3699 2173,3517 2173,3295 2173,3294 2173,3256 2173,3199 L 2173,2916 2082,2916 Z"/>
       </g>
      </g>
      <g class="com.sun.star.drawing.ClosedBezierShape">
       <g id="id22">
        <rect class="BoundingBox" stroke="none" fill="none" x="1542" y="2916" width="449" height="601"/>
        <path fill="rgb(35,31,32)" stroke="none" d="M 1898,2916 C 1898,3084 1898,3291 1898,3292 1898,3365 1840,3424 1768,3424 L 1767,3424 1766,3424 C 1694,3424 1636,3365 1636,3292 1636,3291 1636,3084 1636,2916 L 1543,2916 C 1543,3084 1543,3291 1543,3292 1543,3416 1644,3516 1767,3516 1890,3516 1990,3416 1990,3292 1990,3291 1990,3084 1990,2916 L 1898,2916 Z"/>
       </g>
      </g>
      <g class="com.sun.star.drawing.PolyPolygonShape">
       <g id="id23">
        <rect class="BoundingBox" stroke="none" fill="none" x="1180" y="2735" width="1176" height="93"/>
        <path fill="rgb(35,31,32)" stroke="none" d="M 1180,2735 L 2355,2735 2355,2826 1180,2826 1180,2735 Z"/>
       </g>
      </g>
      <g class="com.sun.star.drawing.PolyPolygonShape">
       <g id="id24">
        <rect class="BoundingBox" stroke="none" fill="none" x="1180" y="2554" width="1176" height="93"/>
        <path fill="rgb(35,31,32)" stroke="none" d="M 1180,2554 L 2355,2554 2355,2645 1180,2645 1180,2554 Z"/>
       </g>
      </g>
      <g class="com.sun.star.drawing.ClosedBezierShape">
       <g id="id25">
        <rect class="BoundingBox" stroke="none" fill="none" x="1028" y="1705" width="1369" height="761"/>
        <path fill="rgb(35,31,32)" stroke="none" d="M 2153,2300 C 2153,2300 2191,2314 2200,2327 2206,2336 2240,2345 2240,2345 2240,2345 2251,2346 2264,2358 2275,2368 2278,2372 2285,2374 L 1936,2374 C 1937,2368 1938,2359 1929,2354 1924,2351 1919,2345 1913,2342 1889,2330 1886,2335 1876,2326 1871,2322 1867,2304 1867,2304 1867,2304 1911,2261 1919,2250 1930,2236 1934,2231 1938,2224 1971,2221 2006,2215 2018,2208 2021,2206 2024,2204 2027,2203 2031,2205 2034,2207 2037,2208 2056,2219 2100,2238 2116,2250 2131,2263 2153,2300 2153,2300 Z M 1223,2265 C 1234,2260 1261,2270 1287,2265 1327,2258 1384,2238 1404,2229 1421,2222 1453,2192 1462,2184 1472,2176 1482,2173 1482,2173 1482,2173 1493,2186 1517,2206 1540,2227 1548,2237 1556,2244 1564,2250 1574,2264 1576,2270 1582,2290 1580,2325 1580,2325 1580,2325 1617,2338 1628,2348 1636,2355 1643,2367 1647,2374 L 1273,2374 C 1274,2368 1274,2354 1261,2349 1251,2345 1253,2341 1232,2334 1224,2331 1219,2328 1215,2317 1211,2306 1210,2288 1210,2288 1210,2288 1212,2269 1223,2265 Z M 1770,2187 C 1779,2190 1799,2199 1821,2208 1824,2213 1825,2222 1824,2233 1822,2263 1794,2299 1794,2299 1794,2299 1808,2335 1812,2340 1816,2345 1830,2356 1834,2365 1836,2368 1837,2371 1839,2374 L 1759,2374 C 1760,2363 1753,2358 1751,2357 1747,2352 1743,2344 1733,2340 1695,2327 1696,2332 1685,2324 1678,2318 1660,2306 1655,2298 1651,2291 1644,2256 1644,2227 1644,2210 1642,2193 1641,2182 1675,2177 1729,2168 1770,2187 Z M 2383,1886 C 2383,1886 2381,1883 2377,1879 2374,1874 2364,1869 2359,1864 2355,1860 2350,1852 2347,1851 2344,1849 2339,1840 2336,1838 2334,1836 2331,1822 2330,1821 2330,1819 2329,1815 2325,1813 2322,1812 2316,1807 2311,1804 2307,1800 2297,1790 2297,1790 2297,1790 2294,1773 2290,1764 2286,1755 2284,1752 2282,1748 2280,1745 2279,1744 2278,1739 2278,1739 2273,1738 2267,1742 2267,1742 2256,1733 2245,1727 2234,1720 2221,1714 2216,1713 2211,1711 2204,1707 2201,1705 2201,1705 2193,1704 2187,1705 2182,1706 2167,1707 2159,1709 2151,1710 2132,1713 2127,1713 2118,1714 2116,1715 2102,1717 2102,1717 2091,1719 2087,1721 2083,1722 2071,1727 2062,1728 2053,1729 2043,1729 2031,1731 2026,1732 2008,1739 1999,1741 1995,1742 1989,1743 1989,1743 1989,1743 1991,1749 1996,1751 1996,1751 1993,1756 1987,1759 1981,1762 1975,1765 1967,1768 1958,1771 1945,1776 1942,1779 1942,1779 1944,1784 1949,1787 1949,1787 1951,1788 1943,1791 1936,1795 1920,1802 1912,1805 1905,1809 1894,1815 1889,1818 1882,1821 1881,1822 1874,1826 1868,1830 1871,1830 1871,1830 1871,1830 1874,1830 1879,1831 1884,1831 1887,1833 1887,1833 1887,1833 1887,1836 1884,1839 1880,1842 1875,1849 1864,1857 1858,1861 1853,1865 1847,1870 1840,1874 1834,1882 1831,1883 L 1838,1889 1837,1894 C 1834,1897 1830,1899 1826,1901 1820,1903 1775,1909 1722,1909 1634,1907 1610,1895 1565,1893 1520,1891 1487,1902 1446,1914 1438,1917 1432,1919 1427,1922 1409,1925 1392,1930 1376,1936 1319,1958 1220,2041 1192,2052 1164,2064 1149,2064 1129,2062 1110,2060 1102,2055 1102,2055 1102,2055 1092,2033 1081,2025 1066,2014 1029,2001 1029,2001 1029,2001 1023,2025 1036,2048 1051,2076 1082,2074 1093,2079 1113,2087 1159,2096 1198,2080 1234,2066 1269,2043 1295,2028 1320,2014 1361,2002 1395,1998 1393,2004 1392,2010 1390,2015 1380,2044 1345,2106 1338,2116 1329,2128 1296,2168 1291,2173 1285,2178 1271,2184 1253,2187 1234,2190 1178,2196 1178,2196 1178,2196 1169,2246 1156,2276 1151,2288 1140,2313 1140,2313 1140,2313 1160,2332 1167,2356 1170,2362 1176,2373 1180,2376 L 1180,2462 1180,2464 2355,2464 2355,2374 C 2357,2367 2361,2351 2347,2345 2330,2337 2344,2330 2303,2314 2291,2310 2272,2304 2265,2298 2259,2293 2224,2244 2206,2223 2188,2202 2153,2155 2153,2155 L 2145,2136 2146,2122 C 2148,2119 2151,2117 2153,2114 2159,2107 2169,2097 2172,2092 2178,2078 2176,2091 2180,2084 2183,2078 2195,2072 2200,2069 2205,2066 2212,2056 2212,2056 2212,2056 2213,2062 2215,2067 2215,2067 2218,2064 2224,2057 2229,2051 2228,2050 2234,2043 2241,2036 2246,2023 2250,2014 2255,2005 2257,2003 2259,2001 2259,2001 2261,2008 2263,2013 2263,2013 2268,2008 2270,2004 2272,2000 2273,1994 2276,1989 2279,1984 2281,1978 2284,1976 2288,1975 2293,1971 2300,1971 2304,1971 2311,1973 2316,1975 2322,1976 2325,1973 2328,1978 2332,1983 2337,1986 2337,1986 2337,1986 2337,1985 2342,1983 2346,1981 2347,1981 2351,1978 2355,1975 2354,1973 2357,1970 2361,1967 2363,1964 2364,1958 2366,1952 2363,1949 2366,1946 2369,1944 2374,1943 2377,1937 2380,1930 2379,1929 2380,1928 2381,1927 2382,1923 2382,1923 2382,1923 2389,1916 2391,1911 2392,1905 2393,1904 2395,1901 2395,1901 2393,1893 2383,1886 Z"/>
       </g>
      </g>
      <g class="com.sun.star.drawing.PolyPolygonShape">
       <g id="id26">
        <rect class="BoundingBox" stroke="none" fill="none" x="3127" y="1281" width="42" height="2601"/>
        <path fill="rgb(23,23,22)" stroke="none" d="M 3168,3881 L 3127,3881 3127,1281 3168,1281 3168,3881 Z"/>
       </g>
      </g>
      <g class="com.sun.star.drawing.PolyPolygonShape">
       <g id="id27">
        <rect class="BoundingBox" stroke="none" fill="none" x="3861" y="1780" width="1570" height="1133"/>
        <path fill="rgb(35,31,32)" stroke="none" d="M 3861,1780 L 3861,2011 4449,2011 5030,2011 5427,2011 5427,1780 3861,1780 Z M 5030,2228 L 4850,2228 4449,2228 4269,2228 3861,2228 3861,2454 4449,2454 5030,2454 5430,2454 5430,2228 5030,2228 Z M 5030,2680 L 4850,2680 4449,2680 4269,2680 3861,2680 3861,2912 4449,2912 5030,2912 5427,2912 5427,2680 5030,2680 Z"/>
       </g>
      </g>
      <g class="com.sun.star.drawing.ClosedBezierShape">
       <g id="id28">
        <rect class="BoundingBox" stroke="none" fill="none" x="5639" y="1779" width="1569" height="1136"/>
        <path fill="rgb(35,31,32)" stroke="none" d="M 5639,1780 L 6017,1780 6225,1780 6627,1780 6807,1780 C 7072,1780 7205,1857 7205,2011 L 6807,2011 6225,2011 5639,2011 5639,1780 Z M 5639,2228 L 6045,2228 6045,2454 5639,2454 5639,2228 Z M 6045,2680 L 6045,2912 5639,2914 5639,2680 6045,2680 Z M 6807,2228 L 7207,2228 7207,2454 6807,2454 6807,2228 Z M 6807,2680 L 7205,2680 7205,2912 6807,2912 6807,2680 Z"/>
       </g>
      </g>
      <g class="com.sun.star.drawing.ClosedBezierShape">
       <g id="id29">
        <rect class="BoundingBox" stroke="none" fill="none" x="7421" y="1780" width="1567" height="1133"/>
        <path fill="rgb(35,31,32)" stroke="none" d="M 8377,2680 L 8585,2680 8987,2680 C 8987,2835 8853,2912 8585,2912 L 7421,2912 7421,2680 8377,2680 Z M 7823,1780 L 8003,1780 8987,1780 8987,2011 8003,2011 7421,2011 C 7421,1857 7555,1780 7823,1780 Z M 8987,2454 L 7421,2454 7421,2228 8987,2228 8987,2454 Z"/>
       </g>
      </g>
      <g class="com.sun.star.drawing.PolyPolygonShape">
       <g id="id30">
        <rect class="BoundingBox" stroke="none" fill="none" x="6217" y="3191" width="178" height="314"/>
        <path fill="rgb(35,31,32)" stroke="none" d="M 6217,3191 L 6393,3191 6393,3230 6262,3230 6262,3323 6380,3323 6380,3362 6262,3362 6262,3465 6393,3465 6393,3504 6217,3504 6217,3191 Z"/>
       </g>
      </g>
      <g class="com.sun.star.drawing.PolyPolygonShape">
       <g id="id31">
        <rect class="BoundingBox" stroke="none" fill="none" x="6463" y="3191" width="248" height="314"/>
        <path fill="rgb(35,31,32)" stroke="none" d="M 6463,3191 L 6525,3191 6663,3444 6664,3444 6664,3191 6709,3191 6709,3504 6652,3504 6510,3246 6509,3246 6509,3504 6463,3504 6463,3191 Z"/>
       </g>
      </g>
      <g class="com.sun.star.drawing.ClosedBezierShape">
       <g id="id32">
        <rect class="BoundingBox" stroke="none" fill="none" x="6768" y="3185" width="184" height="326"/>
        <path fill="rgb(35,31,32)" stroke="none" d="M 6930,3238 C 6907,3229 6895,3225 6872,3225 6846,3225 6817,3234 6817,3267 6817,3327 6951,3313 6951,3417 6951,3483 6900,3510 6837,3510 6815,3510 6794,3504 6772,3497 L 6776,3455 C 6793,3462 6820,3470 6842,3470 6868,3470 6904,3456 6904,3419 6904,3349 6768,3368 6768,3271 6768,3215 6813,3186 6870,3186 6890,3186 6915,3189 6936,3197 L 6930,3238 Z"/>
       </g>
      </g>
      <g class="com.sun.star.drawing.ClosedBezierShape">
       <g id="id33">
        <rect class="BoundingBox" stroke="none" fill="none" x="7133" y="3191" width="262" height="314"/>
        <path fill="rgb(35,31,32)" stroke="none" d="M 7178,3465 L 7225,3465 C 7302,3465 7345,3428 7345,3347 7345,3273 7295,3230 7230,3230 L 7178,3230 7178,3465 Z M 7133,3191 L 7225,3191 C 7318,3191 7393,3248 7393,3345 7393,3450 7328,3504 7225,3504 L 7133,3504 7133,3191 Z"/>
       </g>
      </g>
      <g class="com.sun.star.drawing.PolyPolygonShape">
       <g id="id34">
        <rect class="BoundingBox" stroke="none" fill="none" x="7462" y="3191" width="177" height="314"/>
        <path fill="rgb(35,31,32)" stroke="none" d="M 7462,3191 L 7638,3191 7638,3230 7506,3230 7506,3323 7626,3323 7626,3362 7506,3362 7506,3465 7638,3465 7638,3504 7462,3504 7462,3191 Z"/>
       </g>
      </g>
      <g class="com.sun.star.drawing.PolyPolygonShape">
       <g id="id35">
        <rect class="BoundingBox" stroke="none" fill="none" x="7833" y="3191" width="177" height="314"/>
        <path fill="rgb(35,31,32)" stroke="none" d="M 7833,3191 L 7877,3191 7877,3465 8009,3465 8009,3504 7833,3504 7833,3191 Z"/>
       </g>
      </g>
      <g class="com.sun.star.drawing.PolyPolygonShape">
       <g id="id36">
        <rect class="BoundingBox" stroke="none" fill="none" x="8022" y="3191" width="291" height="314"/>
        <path fill="rgb(35,31,32)" stroke="none" d="M 8144,3374 L 8022,3191 8074,3191 8168,3332 8260,3191 8312,3191 8189,3374 8189,3504 8144,3504 8144,3374 Z"/>
       </g>
      </g>
      <g class="com.sun.star.drawing.ClosedBezierShape">
       <g id="id37">
        <rect class="BoundingBox" stroke="none" fill="none" x="8299" y="3185" width="303" height="326"/>
        <path fill="rgb(35,31,32)" stroke="none" d="M 8449,3470 C 8521,3470 8553,3410 8553,3347 8553,3284 8518,3224 8449,3225 8380,3224 8346,3284 8346,3347 8346,3410 8377,3470 8449,3470 Z M 8449,3186 C 8544,3186 8601,3254 8601,3347 8601,3443 8544,3510 8449,3510 8354,3510 8299,3443 8299,3347 8299,3254 8354,3186 8449,3186 Z"/>
       </g>
      </g>
      <g class="com.sun.star.drawing.PolyPolygonShape">
       <g id="id38">
        <rect class="BoundingBox" stroke="none" fill="none" x="8663" y="3191" width="246" height="314"/>
        <path fill="rgb(35,31,32)" stroke="none" d="M 8663,3191 L 8724,3191 8862,3444 8863,3444 8863,3191 8908,3191 8908,3504 8850,3504 8708,3246 8708,3504 8663,3504 8663,3191 Z"/>
       </g>
      </g>
     </g>
    </g>
   </g>
  </g>
 </g>
</svg>